<svg width="250" height="60" viewBox="0 0 250 60" fill="none" xmlns="http://www.w3.org/2000/svg">
<path fill-rule="evenodd" clip-rule="evenodd" d="M5.45239 45.6748H0.0212402L5.71102 19.3505H17.4785C19.5475 19.3505 21.0993 19.3505 22.2631 19.9833C23.4269 20.2364 24.3321 21.1223 24.9787 22.0083C25.8839 23.1473 26.1425 24.666 26.1425 26.1847C26.1425 28.5893 25.2373 30.3611 24.0735 31.7533C22.5217 33.272 20.7114 34.1579 17.7371 34.411C18.3837 35.0438 19.2889 35.9297 19.8062 36.8157C20.97 38.8406 22.5217 41.878 24.0735 45.6748H17.9958C17.3492 44.1561 16.444 41.878 15.0216 38.5875C14.375 36.8157 13.4698 35.9297 12.9526 35.2969C12.306 34.6642 11.4008 34.6642 9.97836 34.6642H7.90934L5.45239 45.6748ZM8.81454 30.8674H11.7887C14.5043 30.8674 16.5733 30.6143 17.6078 30.2346C18.513 29.9815 19.4182 29.3487 19.6768 28.4628C20.3234 27.83 20.8407 26.9441 20.8407 26.0581C20.8407 25.1722 20.1941 24.5394 19.2889 24.0332C19.0303 23.7801 17.7371 23.4004 16.3147 23.4004H10.3663L8.81454 30.8674ZM26.9184 45.6748L32.7375 19.3505H52.3931L51.4879 23.527H37.2634L36.0996 29.7283H50.0654L49.1603 34.1579H35.1944L33.384 41.2452H49.1603L47.8671 45.6748H26.9184ZM67.0055 31.3736H79.1609L76.704 42.6374C75.1522 43.5233 73.7298 44.4092 71.5314 45.042C69.4624 45.6748 67.2641 45.9279 65.1951 45.9279C61.8329 45.9279 59.376 45.2951 57.5656 43.903C55.1087 41.878 53.9448 38.8406 53.9448 35.0438C53.9448 32.3861 54.2035 29.9815 55.4966 27.5768C56.6604 24.9191 58.4708 22.5145 60.9278 20.9958C62.9968 19.4771 65.7123 18.5912 68.8159 18.5912C72.178 18.5912 74.635 19.4771 76.4453 20.6161C78.2557 22.1348 79.4195 24.1598 80.0661 26.8175L74.8936 27.4503C74.635 25.9316 73.7298 24.7925 72.8246 24.1598C71.9194 23.2738 70.3676 23.0207 69.2038 23.0207C67.3934 23.0207 65.583 23.2738 64.0313 24.5394C62.4795 25.1722 61.5743 26.5644 60.6691 28.7159C59.7639 30.4877 59.1174 32.5126 59.1174 34.9173C59.1174 36.9422 59.7639 38.714 60.9278 39.9796C61.8329 40.8655 63.3847 41.4983 65.4537 41.4983C66.3589 41.4983 67.5227 41.4983 69.0745 40.8655C70.2383 40.6124 71.1435 40.2328 72.0487 39.7265L72.9539 35.9297H65.971L67.0055 31.3736Z" fill="#333333"/>
<path fill-rule="evenodd" clip-rule="evenodd" d="M153.517 39.4717H142.913L139.551 45.0403H134.12L149.249 18.9691H155.327L159.594 45.0403H154.422L153.517 39.4717ZM152.999 35.0421L151.448 24.4112L144.853 35.0421H152.999ZM178.733 31.1188H190.888L188.431 42.3826C186.879 43.2685 185.457 44.1544 183.259 44.7872C181.19 45.42 178.991 45.6731 176.922 45.6731C173.56 45.6731 171.103 44.7872 169.293 43.2685C166.836 41.4967 165.672 38.5858 165.672 34.6625C165.672 32.0047 166.319 29.6001 167.224 27.1955C168.388 24.5377 170.198 22.1331 172.655 20.6144C174.724 19.0957 177.44 18.2098 180.543 18.2098C183.905 18.2098 186.362 18.8426 188.173 20.2347C189.983 21.7534 191.147 23.7784 191.793 26.4361L186.621 27.0689C186.362 25.5502 185.457 24.4112 184.552 23.7784C183.647 22.8925 182.095 22.6394 180.672 22.6394C179.121 22.6394 177.31 22.8925 175.888 23.7784C174.336 24.6643 173.172 26.183 172.526 28.208C171.62 29.9798 171.362 32.0047 171.362 34.4094C171.362 36.4343 171.62 38.2061 172.914 39.092C173.819 40.2311 175.371 40.8639 177.181 40.8639C178.345 40.8639 179.638 40.6107 181.06 40.2311C182.224 39.978 183.129 39.3452 184.035 39.092L184.94 35.2953H177.957L178.733 31.1188ZM199.552 45.0403H194.121L199.552 18.9691H211.32C213.389 18.9691 215.199 18.9691 216.104 19.6019C217.268 19.8551 218.173 20.741 218.82 21.6269C219.725 22.7659 219.984 24.0315 219.984 25.8033C219.984 27.8283 219.337 29.6001 217.915 31.1188C216.751 32.8906 214.553 33.5234 211.837 34.0297C212.484 34.6625 213.001 35.5484 213.647 36.4343C214.811 38.4592 216.363 41.4967 217.915 45.0403H212.096C211.837 43.5216 210.932 41.4967 209.38 38.2061C208.733 36.4343 207.828 35.2953 206.923 34.6625C206.276 34.4094 205.371 34.4094 204.207 34.4094H202.138L199.552 45.0403ZM202.656 30.2329H205.63C208.604 30.2329 210.414 30.2329 211.32 29.6001C212.484 29.347 213.13 28.7142 213.777 28.0814C214.423 27.1955 214.682 26.5627 214.682 25.6768C214.682 24.7909 214.423 23.905 213.518 23.6518C212.871 23.3987 211.966 23.019 210.156 23.019H204.078L202.656 30.2329ZM223.604 35.0421C223.604 33.2703 223.863 31.7516 224.251 29.9798C225.156 27.5752 226.061 25.5502 227.225 24.0315C228.389 22.2597 229.941 20.741 232.01 19.8551C233.82 18.9691 236.277 18.3364 238.734 18.3364C242.096 18.3364 244.812 19.2223 246.622 21.2472C248.691 23.2722 249.597 25.9299 249.597 29.2204C249.597 32.1313 248.95 34.9156 247.786 37.5733C246.234 39.9779 244.424 42.0029 242.355 43.5216C239.898 44.6606 237.57 45.5465 234.467 45.5465C232.01 45.5465 229.941 44.9138 228.13 43.7747C226.579 42.8888 225.415 41.3701 224.768 39.5983C223.863 38.2061 223.604 36.4343 223.604 35.0421ZM229.036 34.6625C229.036 36.4343 229.682 37.953 230.846 39.092C231.751 40.6107 233.303 41.117 235.113 41.117C236.665 41.117 238.088 40.4842 239.639 39.5983C240.803 38.4592 242.096 37.1937 243.002 35.1687C243.907 33.3969 244.165 31.3719 244.165 29.4735C244.165 27.0689 243.519 25.6768 242.355 24.4112C241.45 23.2722 239.898 22.6394 238.088 22.6394C235.372 22.6394 233.303 23.7784 231.363 26.4361C229.941 29.0939 229.036 31.7516 229.036 34.6625Z" fill="#FFC903"/>
<path fill-rule="evenodd" clip-rule="evenodd" d="M119.766 32.0059C119.766 36.4354 118.732 38.2073 114.981 38.2073C115.24 35.1698 116.921 32.0059 119.766 32.0059Z" fill="#333333"/>
<path fill-rule="evenodd" clip-rule="evenodd" d="M101.663 45.9274C101.663 45.9274 102.18 44.9149 102.439 44.1555C102.697 43.3962 103.214 41.6244 103.214 41.6244C105.801 33.9043 101.663 30.8668 107.482 23.9061C111.749 19.7296 116.922 17.7047 123.258 17.4516C133.991 15.4266 144.077 12.0095 129.077 1.75826L128.172 0.872345C135.801 1.6317 151.836 14.7938 140.845 18.0844C128.689 21.7546 122.999 19.35 114.335 29.4747L111.749 32.5121C109.421 36.1823 105.154 41.2447 105.413 45.9274C109.421 47.9523 110.456 49.8507 104.896 49.8507C100.37 49.8507 100.37 48.7117 101.663 45.9274Z" fill="#333333"/>
<path fill-rule="evenodd" clip-rule="evenodd" d="M90.5408 24.5388C93.6443 32.7651 96.1012 33.7776 102.438 35.2963C102.179 37.3212 101.662 40.9915 100.886 42.5102C96.3599 40.2321 94.2909 38.3337 92.7391 36.0557C91.8339 34.0307 90.5408 28.7152 90.5408 24.5388Z" fill="#333333"/>
<path fill-rule="evenodd" clip-rule="evenodd" d="M106.058 59.5953C110.067 59.5953 113.429 56.5579 113.429 52.8877C113.429 50.3565 111.619 48.205 109.162 47.1925C109.679 47.9519 110.196 48.9644 110.196 50.2299C110.196 53.2674 107.869 55.9251 105.412 55.9251C102.567 55.9251 100.627 53.1408 100.627 50.2299C100.627 49.7237 100.627 49.2175 100.627 48.7112C99.5926 49.7237 98.8167 51.2424 98.8167 52.8877C98.6874 56.6845 101.92 59.5953 106.058 59.5953Z" fill="#333333"/>
</svg>
