<svg width="33" height="35" viewBox="0 0 33 35" fill="none" xmlns="http://www.w3.org/2000/svg">
<g clip-path="url(#clip0_72_22)">
<path d="M11.2645 0.5C20.3627 0.5 12.131 0.5 21.2292 0.5C30.3274 0.5 32.4937 2.73189 32.4937 12.1058C32.4937 21.4797 32.4937 12.9986 32.4937 22.3725C32.4937 31.7464 30.3274 33.9783 21.2292 33.9783C12.131 33.9783 20.3627 33.9783 11.2645 33.9783C2.16624 33.9783 0 31.7464 0 22.3725C0 12.9986 0 17.3403 0 12.1058C0 2.73189 2.16624 0.5 11.2645 0.5Z" fill="#009A96"/>
<path d="M26.8629 12.2947C27.0134 11.7773 26.8629 11.3975 26.1462 11.3975H23.7767C23.1741 11.3975 22.8965 11.7259 22.7459 12.0879C22.7459 12.0879 21.5411 15.1136 19.8341 17.0791C19.2817 17.6482 19.0308 17.829 18.7297 17.829C18.5791 17.829 18.3611 17.6479 18.3611 17.1308V12.2947C18.3611 11.6738 18.1863 11.3975 17.6841 11.3975H13.9614C13.5849 11.3975 13.3585 11.6854 13.3585 11.9584C13.3585 12.5469 14.212 12.6827 14.2997 14.3376V17.9324C14.2997 18.7206 14.1615 18.8635 13.8603 18.8635C13.057 18.8635 11.1034 15.824 9.9445 12.3464C9.7174 11.6705 9.48959 11.3975 8.88412 11.3975H6.51461C5.83766 11.3975 5.70227 11.7259 5.70227 12.0879C5.70227 12.7344 6.50559 15.9412 9.44229 20.1825C11.4002 23.0792 14.1586 24.6493 16.6689 24.6493C18.1748 24.6493 18.3614 24.3004 18.3614 23.7V21.5109C18.3614 20.8134 18.504 20.6743 18.981 20.6743C19.3323 20.6743 19.9349 20.8554 21.3404 22.2519C22.947 23.9072 23.2117 24.6497 24.1153 24.6497H26.4848C27.1618 24.6497 27.5005 24.3007 27.3051 23.6126C27.0914 22.9266 26.3245 21.9316 25.3068 20.7517C24.7544 20.0791 23.9262 19.3552 23.6752 18.9929C23.3239 18.5276 23.4243 18.3204 23.6752 17.9068C23.6752 17.9068 26.5618 13.7171 26.8629 12.2947Z" fill="#25222C"/>
</g>
<defs>
<clipPath id="clip0_72_22">
<rect width="33" height="34" fill="white" transform="translate(0 0.5)"/>
</clipPath>
</defs>
</svg>
