<svg width="60" height="60" viewBox="0 0 60 60" fill="none" xmlns="http://www.w3.org/2000/svg">
<path fill-rule="evenodd" clip-rule="evenodd" d="M59.13 27.8701L44.13 12.8701C43.59 12.3301 42.84 12 42 12C40.35 12 39 13.35 39 15C39 15.84 39.33 16.5899 39.87 17.1299L49.77 27H18C16.35 27 15 28.35 15 30C15 31.65 16.35 33 18 33H49.77L39.9 42.8701C39.33 43.4101 39 44.16 39 45C39 46.65 40.35 48 42 48C42.84 48 43.59 47.6699 44.13 47.1299L59.13 32.1299C59.67 31.5899 60 30.84 60 30C60 29.16 59.67 28.4101 59.13 27.8701ZM27 54H6V6H27C28.65 6 30 4.65 30 3C30 1.35 28.65 0 27 0H3C1.35 0 0 1.35 0 3V57C0 58.65 1.35 60 3 60H27C28.65 60 30 58.65 30 57C30 55.35 28.65 54 27 54Z" fill="white"/>
</svg>
