<svg width="325" height="73" viewBox="0 0 325 73" fill="none" xmlns="http://www.w3.org/2000/svg">
<path d="M69.2738 45.166C66.8485 45.166 64.6498 44.6447 62.6778 43.602C60.7285 42.5367 59.1871 41.0747 58.0538 39.216C56.9431 37.3347 56.3878 35.2153 56.3878 32.858C56.3878 30.5007 56.9431 28.3927 58.0538 26.534C59.1871 24.6527 60.7285 23.1907 62.6778 22.148C64.6498 21.0827 66.8598 20.55 69.3078 20.55C71.3705 20.55 73.2291 20.9127 74.8838 21.638C76.5611 22.3633 77.9665 23.406 79.0998 24.766L75.5638 28.03C73.9545 26.1713 71.9598 25.242 69.5798 25.242C68.1065 25.242 66.7918 25.5707 65.6358 26.228C64.4798 26.8627 63.5731 27.758 62.9158 28.914C62.2811 30.07 61.9638 31.3847 61.9638 32.858C61.9638 34.3313 62.2811 35.646 62.9158 36.802C63.5731 37.958 64.4798 38.8647 65.6358 39.522C66.7918 40.1567 68.1065 40.474 69.5798 40.474C71.9598 40.474 73.9545 39.5333 75.5638 37.652L79.0998 40.916C77.9665 42.2987 76.5611 43.3527 74.8838 44.078C73.2065 44.8033 71.3365 45.166 69.2738 45.166ZM89.0073 45.03C86.9447 45.03 85.3353 44.486 84.1793 43.398C83.0233 42.2873 82.4453 40.7233 82.4453 38.706V19.53H87.7493V38.4C87.7493 39.1707 87.942 39.7713 88.3273 40.202C88.7353 40.61 89.3016 40.814 90.0276 40.814C90.2996 40.814 90.5716 40.78 90.8436 40.712C91.1376 40.644 91.3646 40.5647 91.5236 40.474L91.7616 44.588C90.8776 44.8827 89.9596 45.03 89.0073 45.03ZM94.3656 26.466H99.6696V44.758H94.3656V26.466ZM97.0176 23.916C96.0426 23.916 95.2496 23.6327 94.6376 23.066C94.0256 22.4993 93.7196 21.7967 93.7196 20.958C93.7196 20.1193 94.0256 19.4167 94.6376 18.85C95.2496 18.2833 96.0426 18 97.0176 18C97.9916 18 98.7856 18.272 99.3976 18.816C100.01 19.36 100.316 20.04 100.316 20.856C100.316 21.74 100.01 22.4767 99.3976 23.066C98.7856 23.6327 97.9916 23.916 97.0176 23.916ZM128.018 26.194C130.308 26.194 132.121 26.874 133.458 28.234C134.818 29.5713 135.498 31.5887 135.498 34.286V44.758H130.194V35.102C130.194 33.6513 129.888 32.5747 129.276 31.872C128.687 31.1467 127.837 30.784 126.726 30.784C125.48 30.784 124.494 31.192 123.768 32.008C123.043 32.8013 122.68 33.9913 122.68 35.578V44.758H117.376V35.102C117.376 32.2233 116.22 30.784 113.908 30.784C112.684 30.784 111.71 31.192 110.984 32.008C110.259 32.8013 109.896 33.9913 109.896 35.578V44.758H104.592V26.466H109.658V28.574C110.338 27.8033 111.166 27.214 112.14 26.806C113.138 26.398 114.226 26.194 115.404 26.194C116.696 26.194 117.864 26.4547 118.906 26.976C119.949 27.4747 120.788 28.2113 121.422 29.186C122.17 28.234 123.111 27.4973 124.244 26.976C125.4 26.4547 126.658 26.194 128.018 26.194ZM159.016 26.466V44.758H153.95V42.65C152.635 44.2367 150.731 45.03 148.238 45.03C146.515 45.03 144.951 44.6447 143.546 43.874C142.163 43.1033 141.075 42.004 140.282 40.576C139.488 39.148 139.092 37.4933 139.092 35.612C139.092 33.7307 139.488 32.076 140.282 30.648C141.075 29.22 142.163 28.1207 143.546 27.35C144.951 26.5793 146.515 26.194 148.238 26.194C150.572 26.194 152.397 26.9307 153.712 28.404V26.466H159.016ZM149.156 40.678C150.493 40.678 151.604 40.2247 152.488 39.318C153.372 38.3887 153.814 37.1533 153.814 35.612C153.814 34.0707 153.372 32.8467 152.488 31.94C151.604 31.0107 150.493 30.546 149.156 30.546C147.796 30.546 146.674 31.0107 145.79 31.94C144.906 32.8467 144.464 34.0707 144.464 35.612C144.464 37.1533 144.906 38.3887 145.79 39.318C146.674 40.2247 147.796 40.678 149.156 40.678ZM174.942 43.874C174.421 44.2593 173.775 44.554 173.004 44.758C172.256 44.9393 171.474 45.03 170.658 45.03C168.46 45.03 166.771 44.4747 165.592 43.364C164.414 42.2533 163.824 40.6213 163.824 38.468V22.42H169.128V26.874H173.65V30.954H169.128V38.4C169.128 39.1707 169.321 39.7713 169.706 40.202C170.092 40.61 170.647 40.814 171.372 40.814C172.188 40.814 172.914 40.5873 173.548 40.134L174.942 43.874ZM186.587 40.78C187.539 40.78 188.378 40.644 189.103 40.372C189.851 40.0773 190.543 39.624 191.177 39.012L193.999 42.072C192.277 44.044 189.761 45.03 186.451 45.03C184.389 45.03 182.564 44.6333 180.977 43.84C179.391 43.024 178.167 41.902 177.305 40.474C176.444 39.046 176.013 37.4253 176.013 35.612C176.013 33.8213 176.433 32.212 177.271 30.784C178.133 29.3333 179.3 28.2113 180.773 27.418C182.269 26.602 183.947 26.194 185.805 26.194C187.551 26.194 189.137 26.568 190.565 27.316C191.993 28.0413 193.127 29.1067 193.965 30.512C194.827 31.8947 195.257 33.538 195.257 35.442L181.725 38.06C182.111 38.9667 182.711 39.6467 183.527 40.1C184.366 40.5533 185.386 40.78 186.587 40.78ZM185.805 30.206C184.468 30.206 183.38 30.6367 182.541 31.498C181.703 32.3593 181.261 33.5493 181.215 35.068L190.123 33.334C189.874 32.382 189.364 31.6227 188.593 31.056C187.823 30.4893 186.893 30.206 185.805 30.206ZM215.279 32.484H220.311V44.758H216.163V43.33C214.508 44.554 212.377 45.166 209.771 45.166C207.572 45.166 205.555 44.69 203.719 43.738C201.883 42.786 200.421 41.4033 199.333 39.59C198.245 37.754 197.701 35.578 197.701 33.062C197.701 30.6367 198.256 28.4833 199.367 26.602C200.5 24.698 202.064 23.2133 204.059 22.148C206.053 21.0827 208.297 20.55 210.791 20.55C212.876 20.55 214.769 20.9013 216.469 21.604C218.169 22.3067 219.597 23.3267 220.753 24.664L217.217 27.928C215.517 26.1373 213.465 25.242 211.063 25.242C209.544 25.242 208.195 25.5707 207.017 26.228C205.838 26.8627 204.92 27.7693 204.263 28.948C203.605 30.1267 203.277 31.4867 203.277 33.028C203.277 34.6373 203.594 36.0087 204.229 37.142C204.886 38.2753 205.759 39.1367 206.847 39.726C207.935 40.2927 209.125 40.576 210.417 40.576C212.343 40.576 213.964 40.032 215.279 38.944V32.484ZM243.481 26.466V44.758H238.449V42.582C237.746 43.3753 236.908 43.9873 235.933 44.418C234.958 44.826 233.904 45.03 232.771 45.03C230.368 45.03 228.464 44.3387 227.059 42.956C225.654 41.5733 224.951 39.522 224.951 36.802V26.466H230.255V36.02C230.255 38.9667 231.49 40.44 233.961 40.44C235.23 40.44 236.25 40.032 237.021 39.216C237.792 38.3773 238.177 37.142 238.177 35.51V26.466H243.481ZM266.959 26.466V44.758H261.893V42.65C260.578 44.2367 258.674 45.03 256.181 45.03C254.458 45.03 252.894 44.6447 251.489 43.874C250.106 43.1033 249.018 42.004 248.225 40.576C247.432 39.148 247.035 37.4933 247.035 35.612C247.035 33.7307 247.432 32.076 248.225 30.648C249.018 29.22 250.106 28.1207 251.489 27.35C252.894 26.5793 254.458 26.194 256.181 26.194C258.516 26.194 260.34 26.9307 261.655 28.404V26.466H266.959ZM257.099 40.678C258.436 40.678 259.547 40.2247 260.431 39.318C261.315 38.3887 261.757 37.1533 261.757 35.612C261.757 34.0707 261.315 32.8467 260.431 31.94C259.547 31.0107 258.436 30.546 257.099 30.546C255.739 30.546 254.617 31.0107 253.733 31.94C252.849 32.8467 252.407 34.0707 252.407 35.612C252.407 37.1533 252.849 38.3887 253.733 39.318C254.617 40.2247 255.739 40.678 257.099 40.678ZM276.936 28.88C277.57 27.996 278.42 27.3273 279.486 26.874C280.574 26.4207 281.82 26.194 283.226 26.194V31.09C282.636 31.0447 282.24 31.022 282.036 31.022C280.517 31.022 279.327 31.4527 278.466 32.314C277.604 33.1527 277.174 34.422 277.174 36.122V44.758H271.87V26.466H276.936V28.88ZM304.845 19.53V44.758H299.779V42.65C298.465 44.2367 296.561 45.03 294.067 45.03C292.345 45.03 290.781 44.6447 289.375 43.874C287.993 43.1033 286.905 42.004 286.111 40.576C285.318 39.148 284.921 37.4933 284.921 35.612C284.921 33.7307 285.318 32.076 286.111 30.648C286.905 29.22 287.993 28.1207 289.375 27.35C290.781 26.5793 292.345 26.194 294.067 26.194C296.402 26.194 298.227 26.9307 299.541 28.404V19.53H304.845ZM294.985 40.678C296.323 40.678 297.433 40.2247 298.317 39.318C299.201 38.3887 299.643 37.1533 299.643 35.612C299.643 34.0707 299.201 32.8467 298.317 31.94C297.433 31.0107 296.323 30.546 294.985 30.546C293.625 30.546 292.503 31.0107 291.619 31.94C290.735 32.8467 290.293 34.0707 290.293 35.612C290.293 37.1533 290.735 38.3887 291.619 39.318C292.503 40.2247 293.625 40.678 294.985 40.678Z" fill="#6390AB"/>
<path fill-rule="evenodd" clip-rule="evenodd" d="M46.2715 18.2984H48.4976V43.6795L46.2715 45.0108V18.2984Z" fill="#6390AB"/>
<path fill-rule="evenodd" clip-rule="evenodd" d="M5.75789 3.10726V46.7921L3.53186 44.6752V4.06967V1.10794V1.00021L5.75789 3.10726Z" fill="#6390AB"/>
<path fill-rule="evenodd" clip-rule="evenodd" d="M3.53327 1.00001L48.5056 43.6772L47.2621 45.5659L3.53259 4.06816L3.53327 1.00001Z" fill="#6390AB"/>
<path fill-rule="evenodd" clip-rule="evenodd" d="M3.5323 14.5278L41.7024 50.7499L40.0781 52.2772L3.53229 17.5965L3.5323 14.5278Z" fill="#6390AB"/>
<path fill-rule="evenodd" clip-rule="evenodd" d="M3.53346 28.0349L34.5226 57.4425L32.889 58.961L3.53289 31.1031L3.53346 28.0349Z" fill="#6390AB"/>
<path fill-rule="evenodd" clip-rule="evenodd" d="M3.53376 41.6093L27.3082 64.1704L25.6756 65.69L3.53294 44.6773L3.53376 41.6093Z" fill="#6390AB"/>
<path fill-rule="evenodd" clip-rule="evenodd" d="M48.4987 44.4096L25.6734 65.6946L24.0604 64.1549L48.5075 41.3577L48.4987 44.4096Z" fill="#6390AB"/>
<path d="M48.4976 18.2984V16.0724L18.2236 16.0724L18.5 18.2984H48.4976Z" fill="#6390AB"/>
</svg>
