<svg width="100" height="100" viewBox="0 0 100 100" fill="none" xmlns="http://www.w3.org/2000/svg">
<path d="M5.34824 61.3441C5.675 62.2299 6.18984 63.0271 6.84863 63.6805C8.0168 64.8486 9.62266 65.5738 11.3941 65.5738C13.1604 65.5738 14.7715 64.8486 15.9395 63.6805C17.1076 62.5125 17.8328 60.9013 17.8328 59.1351V55.5531C16.4766 55.6693 15.2861 55.376 14.3561 54.9883C14.2729 55.3924 14.1789 55.7855 14.057 56.173C13.5975 57.6678 12.8279 59.0299 11.61 60.0097C10.3754 61.0064 8.73672 61.5822 6.56621 61.4713C6.17871 61.4547 5.77441 61.4105 5.34824 61.3441V61.3441ZM43.2955 51.7496H56.1732V47.7023H46.2574C45.4436 47.7023 44.7016 48.0402 44.1646 48.5771C43.6275 49.1142 43.2955 49.8506 43.2955 50.6644V51.7496ZM56.173 54.6783H43.2953V59.1349C43.2953 60.9012 44.0205 62.5123 45.1887 63.6803C46.3566 64.8484 47.9678 65.5736 49.734 65.5736C51.5055 65.5736 53.1166 64.8484 54.2795 63.6803C55.4475 62.5123 56.1729 60.9012 56.1729 59.1349V54.6783H56.173ZM96.3127 64.4556C97.0988 64.8709 97.7908 65.4357 98.3611 66.1054C99.3854 67.3125 100 68.8681 100 70.5566V80.4336C100 81.242 99.3467 81.8951 98.5385 81.8951C97.7303 81.8951 97.0713 81.2418 97.0713 80.4336V70.5566C97.0713 69.5824 96.7168 68.6853 96.1301 67.9933C95.6096 67.3787 94.9064 66.9248 94.1037 66.709C92.5592 67.8383 90.6598 68.5027 88.6115 68.5027C86.4912 68.5027 84.5311 67.7941 82.9531 66.5928C82.6543 66.626 82.3662 66.7092 82.0895 66.8365C81.7129 67.0135 81.3697 67.2849 81.0928 67.6502L73.2254 78.0699C72.9486 78.4353 72.5168 78.6568 72.0574 78.6568H61.9756C61.2281 78.6568 60.5527 78.9556 60.0656 79.4428C59.5783 79.9355 59.2738 80.6109 59.2738 81.3529C59.2738 82.1002 59.5783 82.7758 60.0656 83.2629C60.5527 83.75 61.2281 84.0547 61.9756 84.0547H74.0172C74.4992 84.0547 74.8699 84.0049 75.3297 83.7722C76.1822 83.3459 76.9795 82.0506 77.5607 81.2754L82.7707 74.3826C83.2578 73.7349 84.1713 73.6074 84.8189 74.0947C85.4611 74.5818 85.5885 75.5008 85.1014 76.1431L80.1463 82.7092V95.4762H97.0713V87.0662C97.0713 86.2578 97.7301 85.6047 98.5385 85.6047C99.3469 85.6047 100 86.258 100 87.0662V96.9431C100 97.7515 99.3467 98.4047 98.5385 98.4047C66.1775 98.4047 33.8225 98.4047 1.46719 98.4047C0.658984 98.4047 0 97.7514 0 96.9431V87.0662C0 86.2578 0.658984 85.6047 1.46719 85.6047C2.27559 85.6047 2.92871 86.258 2.92871 87.0662V95.4762H19.8594V82.7092L14.8988 76.1431C14.4117 75.5008 14.5391 74.5818 15.1869 74.0947C15.8291 73.6074 16.748 73.7347 17.2354 74.3826L22.3287 81.126C22.7937 81.7404 23.259 82.3603 23.7238 82.9806C23.9895 83.3293 24.3162 83.5951 24.6762 83.7722C25.0803 83.9771 25.4568 84.0547 25.8998 84.0547H38.0301C38.7721 84.0547 39.4475 83.75 39.94 83.2629C40.4273 82.7758 40.7262 82.1002 40.7262 81.3529C40.7262 80.6109 40.4273 79.9355 39.94 79.4428C39.4475 78.9556 38.7721 78.6568 38.0301 78.6568H27.9428C27.4998 78.6568 27.0625 78.4519 26.7748 78.0699L18.9074 67.6502C18.4588 67.0578 17.7889 66.676 17.0473 66.5928C15.4748 67.7887 13.515 68.5027 11.3945 68.5027C9.34609 68.5027 7.44141 67.8385 5.89687 66.7146C5.11074 66.9195 4.41309 67.3679 3.89258 67.9658C3.29453 68.6633 2.9291 69.5658 2.9291 70.5568V80.4338C2.9291 81.2422 2.27578 81.8953 1.46758 81.8953C0.659375 81.8953 0.000390625 81.242 0.000390625 80.4338V70.5568C0.000390625 68.8461 0.637109 67.2683 1.6834 66.0558C2.24824 65.4082 2.9291 64.8599 3.69316 64.4558C2.60254 62.889 2.02676 61.0398 2.02676 59.1353V50.6646C2.02676 49.0424 2.68555 47.5697 3.7541 46.5013C4.82285 45.4385 6.28984 44.774 7.91191 44.774H14.8711C16.4934 44.774 17.966 45.4383 19.0344 46.5013C20.1031 47.5699 20.7619 49.0426 20.7619 50.6646V59.1353C20.7619 61.0121 20.2027 62.7674 19.2447 64.2344C20.0365 64.633 20.7062 65.181 21.2434 65.8898L28.668 75.7224H34.5309V69.782C34.5309 68.099 35.4223 66.5763 36.8672 65.2863C37.9857 64.2898 39.4584 63.4205 41.0861 62.7342C40.6211 61.6213 40.3666 60.4088 40.3666 59.1353V53.2168V50.6644C40.3666 49.0422 41.0309 47.5695 42.0941 46.5012C43.1627 45.4383 44.6354 44.7738 46.2574 44.7738H57.6402C58.4488 44.7738 59.1076 45.4326 59.1076 46.241V53.217V59.1353C59.1076 60.3367 58.8752 61.4885 58.46 62.5513C60.2094 63.2379 61.7928 64.1236 62.9889 65.1533C64.5223 66.4711 65.4691 68.0433 65.4691 69.7818V75.7222H71.332L78.7566 65.8896C79.3049 65.1697 79.9912 64.6162 80.7609 64.2398C79.7975 62.7672 79.2383 61.0121 79.2383 59.1351V50.6644C79.2383 49.0422 79.9027 47.5695 80.9658 46.5012C82.0344 45.4383 83.507 44.7738 85.1291 44.7738H92.0887C93.7107 44.7738 95.1836 45.4381 96.252 46.5012C97.3148 47.5697 97.9793 49.0424 97.9793 50.6644V59.1351C97.9791 61.0394 97.3979 62.8887 96.3127 64.4556ZM94.6518 61.3441C94.2311 61.4105 93.8213 61.4547 93.4338 61.4713C91.2689 61.582 89.6301 61.0062 88.3955 60.0097C87.1719 59.0299 86.4023 57.6679 85.9428 56.173C85.8264 55.7855 85.727 55.3924 85.6492 54.9883C84.7137 55.3758 83.5289 55.6691 82.167 55.5531V59.1351C82.167 60.9013 82.8922 62.5125 84.0604 63.6805C85.2283 64.8486 86.8396 65.5738 88.6113 65.5738C90.3773 65.5738 91.9887 64.8486 93.1568 63.6805C93.8104 63.0271 94.325 62.2299 94.6518 61.3441V61.3441ZM82.167 52.6187C84.1213 52.8955 85.5496 51.7605 85.8043 51.539C86.0924 51.2955 86.3635 51.1461 86.7566 51.1293C87.565 51.0906 88.2459 51.7107 88.2846 52.5189C88.3346 53.4713 88.4672 54.4347 88.7385 55.3148C89.0375 56.2947 89.508 57.1584 90.2225 57.7342C90.9256 58.299 91.9168 58.6201 93.2953 58.5535C93.8268 58.5258 94.408 58.4429 95.0502 58.2988V50.664C95.0502 49.8502 94.7125 49.1138 94.1754 48.5767C93.6385 48.0398 92.902 47.7019 92.0883 47.7019H85.1289C84.315 47.7019 83.5785 48.0398 83.0416 48.5767C82.5045 49.1138 82.167 49.8502 82.167 50.664V52.6187ZM17.833 52.6187V50.6642C17.833 49.8504 17.501 49.114 16.9639 48.5769C16.427 48.04 15.685 47.7021 14.8711 47.7021H7.91152C7.10332 47.7021 6.36133 48.04 5.82422 48.5769C5.2873 49.114 4.95508 49.8504 4.95508 50.6642V58.299C5.5918 58.4429 6.17305 58.526 6.70469 58.5537C8.0834 58.6203 9.07441 58.299 9.77734 57.7344C10.4916 57.1588 10.9621 56.2949 11.2668 55.315C11.5381 54.4347 11.6709 53.4715 11.7152 52.5191C11.7539 51.7107 12.4404 51.0908 13.2432 51.1295C13.6197 51.1463 13.9074 51.2846 14.1844 51.5281C14.3895 51.7107 15.84 52.901 17.833 52.6187V52.6187ZM42.6533 65.2529C41.125 65.8453 39.7742 66.5982 38.8107 67.4621C37.9748 68.2039 37.4598 69.0012 37.4598 69.7818V75.7222H38.0301C39.5805 75.7222 40.9922 76.3533 42.0109 77.3721C43.0297 78.3908 43.6607 79.7971 43.6607 81.3529C43.6607 82.3328 43.4061 83.2519 42.9688 84.0547H57.0312C56.5939 83.2519 56.3447 82.3328 56.3447 81.3529C56.3447 79.7971 56.9758 78.3908 57.9947 77.3721C59.0135 76.3533 60.4195 75.7222 61.9754 75.7222H62.5402V69.7818C62.5402 68.9734 61.9865 68.143 61.0896 67.3734C60.0377 66.4711 58.576 65.6904 56.9482 65.098C56.76 65.325 56.5607 65.5465 56.3559 65.7513C54.6562 67.451 52.3143 68.5029 49.7344 68.5029C47.1598 68.5029 44.8125 67.451 43.1184 65.7513C42.9576 65.5904 42.8025 65.4246 42.6533 65.2529V65.2529ZM12.208 12.4408C11.3996 12.4408 10.7465 11.782 10.7465 10.9736C10.7465 10.1652 11.3998 9.51209 12.208 9.51209H39.3256C40.134 9.51209 40.7873 10.1654 40.7873 10.9736C40.7873 11.782 40.1338 12.4408 39.3256 12.4408H12.208ZM12.208 27.8543C11.3996 27.8543 10.7465 27.1955 10.7465 26.3871C10.7465 25.5787 11.3998 24.9199 12.208 24.9199H25.767C26.5754 24.9199 27.2342 25.5787 27.2342 26.3871C27.2342 27.1955 26.5754 27.8543 25.767 27.8543H12.208ZM12.208 20.1476C11.3996 20.1476 10.7465 19.4886 10.7465 18.6804C10.7465 17.872 11.3998 17.2189 12.208 17.2189H39.3256C40.134 17.2189 40.7873 17.8722 40.7873 18.6804C40.7873 19.4886 40.1338 20.1476 39.3256 20.1476H12.208ZM40.826 35.7658C41.0309 36.3361 41.3574 36.8453 41.7729 37.2605C42.5148 38.008 43.5445 38.473 44.6904 38.473H53.2996C54.108 38.473 54.7611 39.1263 54.7611 39.9402C54.7611 40.7486 54.1078 41.4017 53.2996 41.4017H44.6904C42.7361 41.4017 40.9754 40.6047 39.702 39.3201C38.7498 38.3625 38.0742 37.1334 37.7863 35.7658H17.3625L10.7299 42.3984C10.4643 42.6642 10.0988 42.8303 9.68906 42.8303C8.88066 42.8303 8.22188 42.1769 8.22188 41.3687V35.6441C6.36152 35.334 4.69492 34.4428 3.41621 33.1582C1.80508 31.5525 0.808594 29.3324 0.808594 26.8853V10.4756C0.808594 8.03396 1.80527 5.81384 3.41621 4.20291C5.02168 2.59724 7.2418 1.59509 9.68906 1.59509H41.8451C44.292 1.59509 46.5123 2.59724 48.1178 4.20291C49.7289 5.81384 50.7254 8.03396 50.7254 10.4756V13.1885H75.6066C77.5498 13.1885 79.3105 13.9802 80.5895 15.2592C81.8684 16.5381 82.6602 18.2986 82.6602 20.242V34.3488C82.6602 36.2922 81.8684 38.0527 80.5895 39.3316C79.6426 40.2785 78.4248 40.9594 77.0684 41.2474V47.0053C77.0684 47.3762 76.9299 47.7525 76.642 48.0406C76.0717 48.6107 75.1416 48.6107 74.5711 48.0406L67.933 41.4023H59.9328C59.1244 41.4023 58.4656 40.749 58.4656 39.9408C58.4656 39.1269 59.1244 38.4736 59.9328 38.4736H68.542C68.9518 38.4736 69.317 38.6398 69.5828 38.9109L74.1393 43.4674V39.9406C74.1393 39.1267 74.798 38.4734 75.6066 38.4734C76.7359 38.4734 77.7713 38.0084 78.5187 37.2609C79.2662 36.5137 79.7312 35.4838 79.7312 34.3488V20.242C79.7312 19.107 79.2662 18.0773 78.5187 17.3299C77.7713 16.5824 76.7359 16.1174 75.6066 16.1174H50.7252V26.8857C50.7252 29.3328 49.7287 31.5529 48.1176 33.1586C46.5119 34.7695 44.2918 35.7662 41.8449 35.7662H40.826V35.7658ZM16.7533 32.8371H41.8449C43.4838 32.8371 44.9674 32.1672 46.0471 31.0877C47.1266 30.008 47.7965 28.5187 47.7965 26.8853V10.4756C47.7965 8.84236 47.1266 7.3531 46.0471 6.27341C44.9676 5.19373 43.4838 4.5238 41.8449 4.5238H9.68887C8.05 4.5238 6.56621 5.19373 5.48652 6.27341C4.40703 7.35291 3.73691 8.84216 3.73691 10.4756V26.8855C3.73691 28.5187 4.40703 30.008 5.48652 31.0879C6.56602 32.1674 8.05 32.8373 9.68887 32.8373C10.4973 32.8373 11.1504 33.4961 11.1504 34.3045V37.8312L15.718 33.2693C16.0061 32.981 16.377 32.8371 16.7533 32.8371V32.8371ZM77.2174 86.9832H22.7883V95.476H77.2176V86.9832H77.2174Z" fill="#008884"/>
</svg>
