<svg width="33" height="35" viewBox="0 0 33 35" fill="none" xmlns="http://www.w3.org/2000/svg">
<g clip-path="url(#clip0_72_27)">
<path d="M30.9535 0.760742H2.04682C1.05613 0.760742 0.253174 1.58766 0.253174 2.60837V32.3911C0.253174 33.4114 1.05613 34.2391 2.04682 34.2391H30.9535C31.9435 34.2391 32.7468 33.4118 32.7468 32.3911V2.60837C32.7468 1.58766 31.9439 0.760742 30.9535 0.760742ZM22.1247 10.0454L20.0855 10.0461C18.4868 10.0461 18.177 10.8288 18.177 11.9778V14.511H21.9903L21.4936 18.4786H18.177V28.6593H14.2005V18.4786H10.8753V14.511H14.2005V11.585C14.2005 8.18958 16.2133 6.34046 19.1533 6.34046C20.5617 6.34046 21.7719 6.44834 22.1247 6.49669V10.0454Z" fill="#009A96"/>
</g>
<defs>
<clipPath id="clip0_72_27">
<rect width="33" height="34" fill="white" transform="translate(0 0.5)"/>
</clipPath>
</defs>
</svg>
