<svg width="100" height="100" viewBox="0 0 100 100" fill="none" xmlns="http://www.w3.org/2000/svg">
<g clip-path="url(#clip0_62_2439)">
<path d="M98.5352 84.6901H95.9434V32.0639C95.9434 28.2094 92.8066 25.0737 88.9512 25.0737H85.5103C85.8865 24.2866 86.0939 23.4135 86.0939 22.5063C86.0939 20.2973 84.8816 18.2824 82.9299 17.2479L63.7756 7.10139C63.0607 6.72249 62.174 6.99514 61.7955 7.71018C61.4168 8.42503 61.6895 9.31155 62.4043 9.69026L81.5582 19.8366C82.5639 20.3696 83.1643 21.3676 83.1643 22.5063C83.1643 23.645 82.5639 24.6428 81.5586 25.1756L62.9391 35.0393L51.1016 21.5405C50.5682 20.9321 49.6426 20.8715 49.0344 21.4049C48.4262 21.9383 48.3654 22.8639 48.8988 23.4721L60.2785 36.4489L53.2332 40.1811C51.2088 41.252 48.7918 41.252 46.768 40.1815L18.4418 25.176C17.4363 24.643 16.8357 23.645 16.8357 22.5065C16.8357 21.368 17.4361 20.37 18.4414 19.8369L46.767 4.83147C48.7914 3.76038 51.2084 3.76038 53.232 4.83108L62.4043 9.69026C63.1191 10.0692 63.3969 9.11332 63.7756 8.39848C64.1543 7.68363 64.4902 7.4801 63.7756 7.10139L54.6031 2.24202C51.7207 0.716821 48.2789 0.716821 45.3963 2.24221L17.0697 17.2483C15.1184 18.2826 13.9062 20.2975 13.9062 22.5065C13.9062 23.4137 14.1137 24.2866 14.4898 25.0739H11.0488C7.19336 25.0739 4.05664 28.2096 4.05664 32.0641V84.6903H1.46484C0.655859 84.6903 0 85.3461 0 86.1551V89.4018C0 94.6403 4.26172 98.9022 9.5002 98.9022H90.4996C95.7381 98.9022 100 94.6405 100 89.4018V86.1551C100 85.3459 99.3441 84.6901 98.5352 84.6901ZM62.6008 59.2768L64.5107 62.585C64.9055 63.2688 64.6422 63.8725 64.5107 64.1002C64.3793 64.328 63.9881 64.8578 63.1984 64.8578H62.0029C61.2133 64.8578 60.8223 64.328 60.6906 64.1002C60.559 63.8723 60.2959 63.2688 60.6906 62.585L62.6008 59.2768ZM64.0656 37.758L70.127 34.5471V40.3641C70.127 44.5418 67.766 48.2871 64.0656 50.0657V37.758ZM49.9998 43.9145C51.5809 43.9145 53.1623 43.533 54.6037 42.7705L61.1359 39.3102V51.1991C53.1324 53.8502 44.2775 53.5526 36.4656 50.3057C32.4607 48.6412 29.873 44.7389 29.873 40.3643V34.5469L45.3971 42.7707C46.8381 43.5334 48.4187 43.9145 49.9998 43.9145ZM6.98633 32.0639C6.98633 29.8248 8.80879 28.0034 11.0488 28.0034H17.5209L24.8945 31.9096H12.3574C11.5484 31.9096 10.8926 32.5655 10.8926 33.3744V79.3198C10.8926 80.1288 11.5484 80.7846 12.3574 80.7846H25.9492C26.7582 80.7846 25.9492 80.1288 25.9492 79.3198C25.9492 78.5108 26.7582 77.8549 25.9492 77.8549H13.8223V34.8393H26.9434V40.3641C26.9434 45.9264 30.2396 50.8905 35.3414 53.011C39.9992 54.9469 44.9996 55.9149 50.0002 55.9149C53.7607 55.9149 57.5211 55.367 61.1361 54.2721V55.9545L58.1537 61.1202C57.3502 62.5118 57.3502 64.1735 58.1537 65.5651C58.9572 66.9567 60.3961 67.7875 62.0031 67.7875H63.1986C64.8057 67.7875 66.2445 66.9567 67.048 65.5651C67.8516 64.1735 67.8516 62.5118 67.048 61.1202L64.0656 55.9545V53.2487C64.2637 53.1703 64.4619 53.0928 64.6588 53.011C69.7604 50.8905 73.0566 45.9264 73.0566 40.3641V34.8393H86.1777V77.8549H25.9492C25.1402 77.8549 24.4844 78.5108 24.4844 79.3198C24.4844 80.1288 25.1402 80.7846 25.9492 80.7846H87.6426C88.4516 80.7846 89.1074 80.1288 89.1074 79.3198V33.3744C89.1074 32.5655 88.4516 31.9096 87.6426 31.9096H75.1053L82.4789 28.0034H88.951C91.191 28.0034 93.0135 29.8248 93.0135 32.0639V84.6901H6.98633V32.0639ZM59.0586 87.6206C58.5174 89.1957 57.0207 90.3311 55.2643 90.3311H44.7359C42.9793 90.3311 41.4828 89.1957 40.9414 87.6206H59.0586ZM97.0703 89.4016C97.0703 93.0247 94.1227 95.9723 90.4996 95.9723H9.5002C5.87715 95.9723 2.92969 93.0247 2.92969 89.4016V87.6198H5.50645C5.51152 87.6198 5.51641 87.6206 5.52148 87.6206H37.9193C38.5299 90.828 41.3533 93.2608 44.7359 93.2608H55.2643C58.6467 93.2608 61.4701 90.8278 62.0807 87.6206H94.4785C94.4836 87.6206 94.4885 87.6198 94.4936 87.6198H97.0703V89.4016Z" fill="#008884"/>
<path d="M50.443 72.4838C50.443 71.6748 49.7872 71.0189 48.9782 71.0189H19.653C18.844 71.0189 18.1882 71.6748 18.1882 72.4838C18.1882 73.2927 18.844 73.9486 19.653 73.9486H48.9784C49.7872 73.9486 50.443 73.2927 50.443 72.4838Z" fill="#008884"/>
<path d="M19.653 67.7877H39.2604C40.0694 67.7877 40.7253 67.1319 40.7253 66.3229C40.7253 65.5139 40.0694 64.858 39.2604 64.858H19.653C18.844 64.858 18.1882 65.5139 18.1882 66.3229C18.1882 67.1319 18.8438 67.7877 19.653 67.7877Z" fill="#008884"/>
</g>
<defs>
<clipPath id="clip0_62_2439">
<rect width="100" height="100" fill="white"/>
</clipPath>
</defs>
</svg>
