<svg width="100" height="99" viewBox="0 0 100 99" fill="none" xmlns="http://www.w3.org/2000/svg">
<path d="M75.8793 69.0359L61.4991 76.4223C60.2539 75.1677 58.5295 74.3894 56.6265 74.3894H46.7172C46.2764 74.3894 46.1151 74.3622 46.0667 74.3507C45.9768 74.2898 45.7528 74.079 45.5712 73.908L45.4765 73.8187C37.4108 66.2234 30.5953 66.7052 22.8442 69.7644C21.6311 70.2429 21.6081 70.2439 20.4058 70.2988L18.2229 70.3015C17.5415 68.3701 15.7006 66.9819 13.5411 66.9819H6.25005C3.51268 66.9819 1.28564 69.2115 1.28564 71.952V91.0735C1.28564 93.8111 3.51268 96.0381 6.25005 96.0381H13.5409C15.7006 96.0381 17.5415 94.6515 18.2229 92.7221H22.2323C22.6862 92.7613 23.1287 92.8537 23.5601 92.999L42.4141 98.0406C43.2397 98.2644 43.9976 98.4847 44.7308 98.6977C47.1656 99.4053 49.2124 100 51.3465 99.9998C53.7575 99.9998 56.2798 99.2407 59.598 97.0273C59.6146 97.0162 59.631 97.0051 59.6473 96.9935L82.8938 80.4397C85.9495 78.2595 86.8403 74.3243 84.965 71.2847C83.1113 68.2877 79.2041 67.3216 75.8793 69.0359ZM14.5993 91.0737C14.5993 91.6475 14.1145 92.1323 13.5409 92.1323H6.25005C5.67625 92.1323 5.1917 91.6475 5.1917 91.0737V71.9522C5.1917 71.3755 5.67645 70.8882 6.25005 70.8882H13.5409C14.1147 70.8882 14.5993 71.3755 14.5993 71.9522V91.0737ZM80.6263 77.2592L57.4058 93.7945C52.6794 96.9402 50.668 96.3555 45.8202 94.947C45.0706 94.7292 44.2955 94.504 43.4295 94.2691L24.5704 89.2261C23.8117 88.9908 23.032 88.8541 22.2319 88.8162H18.5053V74.2097L20.5835 74.2009C22.07 74.1331 22.5309 74.0871 24.2777 73.398C30.9961 70.7462 36.1806 70.4304 42.8002 76.6641L42.8938 76.752C44.0336 77.8252 44.7398 78.2952 46.7172 78.2952H56.6265C58.2602 78.2952 59.5892 79.6245 59.5892 81.2582C59.5892 82.889 58.2602 84.2157 56.6265 84.2157H40.5615C39.4828 84.2157 38.6084 85.09 38.6084 86.1687C38.6084 87.2473 39.4828 88.1217 40.5615 88.1217H56.6265C60.414 88.1217 63.4953 85.0428 63.4953 81.2582C63.4953 80.7797 63.4457 80.3125 63.3521 79.8614L77.6663 72.5088C78.9711 71.8364 80.756 71.9053 81.6415 73.3375C82.4223 74.6032 81.9852 76.2897 80.6263 77.2592V77.2592Z" fill="#008884"/>
<path d="M46.2409 46.1948C44.1267 47.2246 42.666 49.3952 42.666 51.9008C42.666 54.6633 44.4449 57.0171 46.9176 57.8827V60.7915C46.9176 64.3533 49.8128 67.251 53.3712 67.251H62.0237C65.5852 67.251 68.4829 64.3533 68.4829 60.7915V57.8827C70.9557 57.0171 72.7345 54.6631 72.7345 51.9008C72.7345 49.395 71.2738 47.2244 69.1595 46.1946C70.0147 43.0174 71.7484 40.6517 73.5718 38.1702C76.3767 34.3528 79.5558 30.026 79.549 22.4047C79.549 21.7243 79.5209 21.0259 79.4654 20.3289C79.3799 19.2535 78.4411 18.4538 77.3636 18.5368C76.2884 18.6223 75.4861 19.5633 75.5717 20.6386C75.6189 21.2329 75.643 21.827 75.643 22.4063C75.6486 28.7466 73.1109 32.2005 70.4239 35.8572C68.3851 38.6319 66.287 41.4921 65.2872 45.5573H50.1126C49.1128 41.4925 47.0141 38.6325 44.9749 35.858C42.2872 32.2013 39.7486 28.7474 39.757 22.4069C39.7656 15.6461 42.6621 11.3764 45.0907 8.98508C48.4347 5.69227 53.0152 3.84158 57.6723 3.9072C57.6911 3.90739 57.7097 3.90739 57.7284 3.9072C61.5229 3.84958 65.3286 5.08644 68.4355 7.3834C69.3024 8.02458 70.5258 7.84119 71.167 6.97404C71.8082 6.1067 71.625 4.88371 70.7576 4.24253C66.9748 1.44619 62.3387 -0.0582326 57.6999 0.00172543C52.0187 -0.0676071 46.427 2.18834 42.3504 6.2026C38.1069 10.3813 35.8595 15.9832 35.8513 22.4024C35.8412 30.0268 39.0219 34.3542 41.828 38.1719C43.6515 40.6529 45.3856 43.0182 46.2409 46.1948V46.1948ZM64.5771 60.7917C64.5771 62.1997 63.4318 63.3451 62.0239 63.3451H53.3714C51.9666 63.3451 50.8239 62.1997 50.8239 60.7917V58.2385H64.5771V60.7917ZM49.0091 49.4638H66.3916C67.7353 49.4638 68.8286 50.5571 68.8286 51.9008C68.8286 53.2415 67.7355 54.3323 66.3916 54.3323H49.0091C47.6654 54.3323 46.5721 53.2415 46.5721 51.9008C46.5721 50.5571 47.6654 49.4638 49.0091 49.4638Z" fill="#008884"/>
<path d="M51.6389 24.9727C51.107 24.4408 49.6396 24.2099 48.8769 24.9727C48.1142 25.7354 48.345 27.2028 48.8769 27.7347L54.7498 33.6776C55.2817 34.2095 56.8488 34.4404 57.6116 33.6776C58.3743 32.9149 58.1434 31.4772 57.6116 30.9453L51.6389 24.9727Z" fill="#008884"/>
<path d="M66.7563 19.401C67.7631 18.3942 69.1975 18.1964 69.9602 18.9591C70.723 19.7218 70.5251 21.1562 69.5183 22.163L58.2122 33.4692C57.2054 34.476 55.771 34.6738 55.0082 33.9111C54.2455 33.1484 54.4434 31.714 55.4502 30.7072L66.7563 19.401Z" fill="#008884"/>
<path d="M96.7615 22.3895H88.8286C87.75 22.3895 86.8756 23.2639 86.8756 24.3426C86.8756 25.4212 87.75 26.2956 88.8286 26.2956H96.7615C97.8401 26.2956 98.7145 25.4212 98.7145 24.3426C98.7145 23.2639 97.8401 22.3895 96.7615 22.3895V22.3895Z" fill="#008884"/>
<path d="M85.5475 9.8094C85.9217 9.8094 86.3 9.70198 86.634 9.47777L93.2161 5.06002C94.1118 4.45888 94.3504 3.24566 93.7493 2.35C93.1483 1.45453 91.9351 1.21568 91.0393 1.81682L84.4572 6.23457C83.5615 6.83572 83.3228 8.04913 83.924 8.9446C84.3011 9.50609 84.9185 9.8094 85.5475 9.8094V9.8094Z" fill="#008884"/>
<path d="M93.2163 43.625L86.6342 39.2072C85.7385 38.6061 84.5251 38.8449 83.9242 39.7404C83.323 40.6358 83.5619 41.8493 84.4574 42.4504L91.0395 46.8682C91.3734 47.0924 91.7517 47.1998 92.1259 47.1998C92.755 47.1998 93.3725 46.8965 93.7495 46.335C94.3506 45.4393 94.112 44.2259 93.2163 43.625Z" fill="#008884"/>
<path d="M18.6392 26.2956H26.5666C27.6453 26.2956 28.5196 25.4212 28.5196 24.3426C28.5196 23.2639 27.6453 22.3895 26.5666 22.3895H18.6392C17.5606 22.3895 16.6862 23.2639 16.6862 24.3426C16.6862 25.4212 17.5606 26.2956 18.6392 26.2956V26.2956Z" fill="#008884"/>
<path d="M22.1844 5.06027L28.7665 9.47802C29.1005 9.70223 29.4788 9.80964 29.853 9.80964C30.482 9.80964 31.0996 9.50634 31.4765 8.94484C32.0777 8.04938 31.8388 6.83596 30.9434 6.23482L24.3612 1.81706C23.4656 1.21592 22.2524 1.45478 21.6512 2.35024C21.0501 3.24571 21.2887 4.45912 22.1844 5.06027V5.06027Z" fill="#008884"/>
<path d="M28.7667 39.2072L22.1846 43.625C21.289 44.2261 21.0503 45.4395 21.6515 46.335C22.0284 46.8965 22.6458 47.1998 23.275 47.1998C23.6492 47.1998 24.0275 47.0924 24.3615 46.8682L30.9436 42.4504C31.8393 41.8493 32.0779 40.6358 31.4768 39.7404C30.8756 38.8449 29.6622 38.6061 28.7667 39.2072Z" fill="#008884"/>
<path d="M73.7187 13.5223C74.0995 13.903 74.5974 14.093 75.0956 14.093C75.5956 14.093 76.096 13.9016 76.4781 13.5196C77.2407 12.7569 77.238 11.5174 76.4753 10.7545C75.7126 9.99182 74.4759 9.99182 73.713 10.7545C72.9503 11.5172 72.9503 12.7539 73.713 13.5168L73.7187 13.5223Z" fill="#008884"/>
</svg>
