<svg xmlns="http://www.w3.org/2000/svg" xml:space="preserve" width="553px" height="184px" version="1.1" shape-rendering="geometricPrecision" text-rendering="geometricPrecision" image-rendering="optimizeQuality" fill-rule="evenodd" clip-rule="evenodd"
viewBox="0 0 587.21 195.69"
 xmlns:xlink="http://www.w3.org/1999/xlink"
 xmlns:xodm="http://www.corel.com/coreldraw/odm/2003">
 <defs>
   <linearGradient id="id0" gradientUnits="userSpaceOnUse" x1="173.27" y1="51.35" x2="27.56" y2="152.45">
    <stop offset="0" stop-opacity="1" stop-color="#A4C738"/>
    <stop offset="1" stop-opacity="1" stop-color="#4C9A3B"/>
   </linearGradient>
   <clipPath id="id1">
    <path d="M24.43 162.52c35.72,40.55 97.54,44.47 138.09,8.75 40.55,-35.72 44.47,-97.55 8.75,-138.1 -35.72,-40.55 -97.55,-44.46 -138.1,-8.74 -40.55,35.72 -44.46,97.54 -8.74,138.09z"/>
   </clipPath>
     <mask id="id2">
       <linearGradient id="id3" gradientUnits="userSpaceOnUse" x1="173.27" y1="51.35" x2="27.56" y2="152.45">
        <stop offset="0" stop-opacity="1" stop-color="white"/>
        <stop offset="1" stop-opacity="1" stop-color="white"/>
       </linearGradient>
      <rect fill="url(#id3)" x="-0.48" y="-0.48" width="196.65" height="196.65"/>
     </mask>
     <linearGradient id="id4" gradientUnits="userSpaceOnUse" x1="173.27" y1="51.35" x2="27.56" y2="152.45">
      <stop offset="0" stop-opacity="1" stop-color="#A4C738"/>
      <stop offset="1" stop-opacity="1" stop-color="#4C9A3B"/>
     </linearGradient>
     <mask id="id5">
       <linearGradient id="id6" gradientUnits="userSpaceOnUse" x1="-30.85" y1="118.41" x2="-104.93" y2="130.41">
        <stop offset="0" stop-opacity="1" stop-color="white"/>
        <stop offset="1" stop-opacity="1" stop-color="white"/>
       </linearGradient>
      <rect fill="url(#id6)" x="-119.43" y="111.84" width="100.46" height="24.18"/>
     </mask>
     <mask id="id7">
       <linearGradient id="id8" gradientUnits="userSpaceOnUse" x1="-30.85" y1="118.41" x2="-104.93" y2="130.41">
        <stop offset="0" stop-opacity="1" stop-color="white"/>
        <stop offset="1" stop-opacity="1" stop-color="white"/>
       </linearGradient>
      <rect fill="url(#id8)" x="-119.43" y="111.84" width="100.46" height="24.18"/>
     </mask>
     <mask id="id9">
       <linearGradient id="id10" gradientUnits="userSpaceOnUse" x1="-30.85" y1="118.41" x2="-104.93" y2="130.41">
        <stop offset="0" stop-opacity="1" stop-color="white"/>
        <stop offset="1" stop-opacity="1" stop-color="white"/>
       </linearGradient>
      <rect fill="url(#id10)" x="-119.43" y="111.84" width="100.46" height="24.18"/>
     </mask>
     <mask id="id11">
       <linearGradient id="id12" gradientUnits="userSpaceOnUse" x1="144.17" y1="69.81" x2="55.27" y2="129.79">
        <stop offset="0" stop-opacity="1" stop-color="white"/>
        <stop offset="1" stop-opacity="1" stop-color="white"/>
       </linearGradient>
      <rect fill="url(#id12)" x="37.97" y="38.87" width="120.36" height="117.05"/>
     </mask>
     <mask id="id13">
       <linearGradient id="id14" gradientUnits="userSpaceOnUse" x1="87.65" y1="138.31" x2="13.57" y2="150.31">
        <stop offset="0" stop-opacity="1" stop-color="white"/>
        <stop offset="1" stop-opacity="1" stop-color="white"/>
       </linearGradient>
      <rect fill="url(#id14)" x="-0.93" y="131.74" width="100.46" height="24.18"/>
     </mask>
     <mask id="id15">
       <linearGradient id="id16" gradientUnits="userSpaceOnUse" x1="87.65" y1="138.31" x2="13.57" y2="150.31">
        <stop offset="0" stop-opacity="1" stop-color="white"/>
        <stop offset="1" stop-opacity="1" stop-color="white"/>
       </linearGradient>
      <rect fill="url(#id16)" x="-0.93" y="131.74" width="100.46" height="24.18"/>
     </mask>
     <mask id="id17">
       <linearGradient id="id18" gradientUnits="userSpaceOnUse" x1="87.65" y1="138.31" x2="13.57" y2="150.31">
        <stop offset="0" stop-opacity="1" stop-color="white"/>
        <stop offset="1" stop-opacity="1" stop-color="white"/>
       </linearGradient>
      <rect fill="url(#id18)" x="-0.93" y="131.74" width="100.46" height="24.18"/>
     </mask>
     <mask id="id19">
       <linearGradient id="id20" gradientUnits="userSpaceOnUse" x1="183.84" y1="45.44" x2="109.75" y2="57.44">
        <stop offset="0" stop-opacity="1" stop-color="white"/>
        <stop offset="1" stop-opacity="1" stop-color="white"/>
       </linearGradient>
      <rect fill="url(#id20)" x="95.26" y="38.87" width="100.46" height="24.18"/>
     </mask>
     <mask id="id21">
       <linearGradient id="id22" gradientUnits="userSpaceOnUse" x1="183.84" y1="45.44" x2="109.75" y2="57.44">
        <stop offset="0" stop-opacity="1" stop-color="white"/>
        <stop offset="1" stop-opacity="1" stop-color="white"/>
       </linearGradient>
      <rect fill="url(#id22)" x="95.26" y="38.87" width="100.46" height="24.18"/>
     </mask>
     <mask id="id23">
       <linearGradient id="id24" gradientUnits="userSpaceOnUse" x1="183.84" y1="45.44" x2="109.75" y2="57.44">
        <stop offset="0" stop-opacity="1" stop-color="white"/>
        <stop offset="1" stop-opacity="1" stop-color="white"/>
       </linearGradient>
      <rect fill="url(#id24)" x="95.26" y="38.87" width="100.46" height="24.18"/>
     </mask>
     <mask id="id25">
       <linearGradient id="id26" gradientUnits="userSpaceOnUse" x1="186.77" y1="65.35" x2="110.22" y2="77.34">
        <stop offset="0" stop-opacity="1" stop-color="white"/>
        <stop offset="1" stop-opacity="1" stop-color="white"/>
       </linearGradient>
      <rect fill="url(#id26)" x="95.26" y="58.77" width="103.78" height="24.18"/>
     </mask>
     <mask id="id27">
       <linearGradient id="id28" gradientUnits="userSpaceOnUse" x1="186.77" y1="65.35" x2="110.22" y2="77.34">
        <stop offset="0" stop-opacity="1" stop-color="white"/>
        <stop offset="1" stop-opacity="1" stop-color="white"/>
       </linearGradient>
      <rect fill="url(#id28)" x="95.26" y="58.77" width="103.78" height="24.18"/>
     </mask>
     <mask id="id29">
       <linearGradient id="id30" gradientUnits="userSpaceOnUse" x1="186.77" y1="65.35" x2="110.22" y2="77.34">
        <stop offset="0" stop-opacity="1" stop-color="white"/>
        <stop offset="1" stop-opacity="1" stop-color="white"/>
       </linearGradient>
      <rect fill="url(#id30)" x="95.26" y="58.77" width="103.78" height="24.18"/>
     </mask>
     <mask id="id31">
       <linearGradient id="id32" gradientUnits="userSpaceOnUse" x1="192.65" y1="118.41" x2="111.15" y2="130.41">
        <stop offset="0" stop-opacity="1" stop-color="white"/>
        <stop offset="1" stop-opacity="1" stop-color="white"/>
       </linearGradient>
      <rect fill="url(#id32)" x="95.26" y="111.84" width="110.41" height="24.18"/>
     </mask>
     <mask id="id33">
       <linearGradient id="id34" gradientUnits="userSpaceOnUse" x1="192.65" y1="118.41" x2="111.15" y2="130.41">
        <stop offset="0" stop-opacity="1" stop-color="white"/>
        <stop offset="1" stop-opacity="1" stop-color="white"/>
       </linearGradient>
      <rect fill="url(#id34)" x="95.26" y="111.84" width="110.41" height="24.18"/>
     </mask>
     <mask id="id35">
       <linearGradient id="id36" gradientUnits="userSpaceOnUse" x1="192.65" y1="118.41" x2="111.15" y2="130.41">
        <stop offset="0" stop-opacity="1" stop-color="white"/>
        <stop offset="1" stop-opacity="1" stop-color="white"/>
       </linearGradient>
      <rect fill="url(#id36)" x="95.26" y="111.84" width="110.41" height="24.18"/>
     </mask>
     <mask id="id37">
       <linearGradient id="id38" gradientUnits="userSpaceOnUse" x1="129.21" y1="79.27" x2="72.41" y2="118.68">
        <stop offset="0" stop-opacity="1" stop-color="white"/>
        <stop offset="1" stop-opacity="1" stop-color="white"/>
       </linearGradient>
      <rect fill="url(#id38)" x="61.19" y="58.77" width="77.24" height="77.25"/>
     </mask>
     <mask id="id39">
       <linearGradient id="id40" gradientUnits="userSpaceOnUse" x1="-38.31" y1="168.71" x2="-53.13" y2="168.71">
        <stop offset="0" stop-opacity="1" stop-color="white"/>
        <stop offset="1" stop-opacity="1" stop-color="white"/>
       </linearGradient>
      <rect fill="url(#id40)" x="-72.51" y="152.12" width="53.06" height="33.17"/>
     </mask>
     <mask id="id41">
       <linearGradient id="id42" gradientUnits="userSpaceOnUse" x1="145.8" y1="90.3" x2="93.94" y2="105.72">
        <stop offset="0" stop-opacity="1" stop-color="white"/>
        <stop offset="1" stop-opacity="1" stop-color="white"/>
       </linearGradient>
      <rect fill="url(#id42)" x="83.65" y="81.99" width="70.61" height="30.81"/>
     </mask>
 </defs>
 <g id="Слой_x0020_1">
  <metadata id="CorelCorpID_0Corel-Layer"/>
  <path fill="url(#id0)" d="M24.43 162.52c35.72,40.55 97.54,44.47 138.09,8.75 40.55,-35.72 44.47,-97.55 8.75,-138.1 -35.72,-40.55 -97.55,-44.46 -138.1,-8.74 -40.55,35.72 -44.46,97.54 -8.74,138.09z"/>
  <g clip-path="url(#id1)">
   <g id="_1769442613040">
    <path id="1" fill="url(#id4)" mask="url(#id2)" d="M24.43 162.52c35.72,40.55 97.54,44.47 138.09,8.75 40.55,-35.72 44.47,-97.55 8.75,-138.1 -35.72,-40.55 -97.55,-44.46 -138.1,-8.74 -40.55,35.72 -44.46,97.54 -8.74,138.09z"/>
    <path fill="#292927" mask="url(#id5)" d="M-22.76 112.32l-92.87 0c-1.84,0 -3.32,1.49 -3.32,3.32l0 16.58c0,1.83 1.48,3.32 3.32,3.32l92.87 0c1.83,0 3.31,-1.49 3.31,-3.32l0 -16.58c0,-1.83 -1.48,-3.32 -3.31,-3.32z"/>
    <path fill="#292927" mask="url(#id7)" d="M-22.76 112.32l-92.87 0c-1.84,0 -3.32,1.49 -3.32,3.32l0 16.58c0,1.83 1.48,3.32 3.32,3.32l92.87 0c1.83,0 3.31,-1.49 3.31,-3.32l0 -16.58c0,-1.83 -1.48,-3.32 -3.31,-3.32z"/>
    <path fill="#292927" mask="url(#id9)" d="M-22.76 112.32l-92.87 0c-1.84,0 -3.32,1.49 -3.32,3.32l0 16.58c0,1.83 1.48,3.32 3.32,3.32l92.87 0c1.83,0 3.31,-1.49 3.31,-3.32l0 -16.58c0,-1.83 -1.48,-3.32 -3.31,-3.32z"/>
    <path fill="#292927" mask="url(#id11)" d="M98.15 155.44c32.97,0 59.7,-25.99 59.7,-58.04 0,-32.06 -26.73,-58.05 -59.7,-58.05 -32.97,0 -59.7,25.99 -59.7,58.05 0,32.05 26.73,58.04 59.7,58.04z"/>
    <path fill="#292927" mask="url(#id13)" d="M95.74 132.22l-92.87 0c-1.83,0 -3.32,1.49 -3.32,3.32l0 16.58c0,1.83 1.49,3.32 3.32,3.32l92.87 0c1.83,0 3.31,-1.49 3.31,-3.32l0 -16.58c0,-1.83 -1.48,-3.32 -3.31,-3.32z"/>
    <path fill="#292927" mask="url(#id15)" d="M95.74 132.22l-92.87 0c-1.83,0 -3.32,1.49 -3.32,3.32l0 16.58c0,1.83 1.49,3.32 3.32,3.32l92.87 0c1.83,0 3.31,-1.49 3.31,-3.32l0 -16.58c0,-1.83 -1.48,-3.32 -3.31,-3.32z"/>
    <path fill="#292927" mask="url(#id17)" d="M95.74 132.22l-92.87 0c-1.83,0 -3.32,1.49 -3.32,3.32l0 16.58c0,1.83 1.49,3.32 3.32,3.32l92.87 0c1.83,0 3.31,-1.49 3.31,-3.32l0 -16.58c0,-1.83 -1.48,-3.32 -3.31,-3.32z"/>
    <path fill="#292927" mask="url(#id19)" d="M191.92 39.35l-92.87 0c-1.83,0 -3.31,1.49 -3.31,3.32l0 16.58c0,1.83 1.48,3.32 3.31,3.32l92.87 0c1.84,0 3.32,-1.49 3.32,-3.32l0 -16.58c0,-1.83 -1.48,-3.32 -3.32,-3.32z"/>
    <path fill="#292927" mask="url(#id21)" d="M191.92 39.35l-92.87 0c-1.83,0 -3.31,1.49 -3.31,3.32l0 16.58c0,1.83 1.48,3.32 3.31,3.32l92.87 0c1.84,0 3.32,-1.49 3.32,-3.32l0 -16.58c0,-1.83 -1.48,-3.32 -3.32,-3.32z"/>
    <path fill="#292927" mask="url(#id23)" d="M191.92 39.35l-92.87 0c-1.83,0 -3.31,1.49 -3.31,3.32l0 16.58c0,1.83 1.48,3.32 3.31,3.32l92.87 0c1.84,0 3.32,-1.49 3.32,-3.32l0 -16.58c0,-1.83 -1.48,-3.32 -3.32,-3.32z"/>
    <path fill="#292927" mask="url(#id25)" d="M195.24 59.25l-96.19 0c-1.83,0 -3.31,1.49 -3.31,3.32l0 16.58c0,1.83 1.48,3.32 3.31,3.32l96.19 0c1.83,0 3.32,-1.49 3.32,-3.32l0 -16.58c0,-1.83 -1.49,-3.32 -3.32,-3.32z"/>
    <path fill="#292927" mask="url(#id27)" d="M195.24 59.25l-96.19 0c-1.83,0 -3.31,1.49 -3.31,3.32l0 16.58c0,1.83 1.48,3.32 3.31,3.32l96.19 0c1.83,0 3.32,-1.49 3.32,-3.32l0 -16.58c0,-1.83 -1.49,-3.32 -3.32,-3.32z"/>
    <path fill="white" mask="url(#id29)" d="M195.24 59.25l-96.19 0c-1.83,0 -3.31,1.49 -3.31,3.32l0 16.58c0,1.83 1.48,3.32 3.31,3.32l96.19 0c1.83,0 3.32,-1.49 3.32,-3.32l0 -16.58c0,-1.83 -1.49,-3.32 -3.32,-3.32z"/>
    <path fill="#292927" mask="url(#id31)" d="M201.87 112.32l-102.82 0c-1.83,0 -3.31,1.49 -3.31,3.32l0 16.58c0,1.83 1.48,3.32 3.31,3.32l102.82 0c1.83,0 3.32,-1.49 3.32,-3.32l0 -16.58c0,-1.83 -1.49,-3.32 -3.32,-3.32z"/>
    <path fill="#292927" mask="url(#id33)" d="M201.87 112.32l-102.82 0c-1.83,0 -3.31,1.49 -3.31,3.32l0 16.58c0,1.83 1.48,3.32 3.31,3.32l102.82 0c1.83,0 3.32,-1.49 3.32,-3.32l0 -16.58c0,-1.83 -1.49,-3.32 -3.32,-3.32z"/>
    <path fill="white" mask="url(#id35)" d="M201.87 112.32l-102.82 0c-1.83,0 -3.31,1.49 -3.31,3.32l0 16.58c0,1.83 1.48,3.32 3.31,3.32l102.82 0c1.83,0 3.32,-1.49 3.32,-3.32l0 -16.58c0,-1.83 -1.49,-3.32 -3.32,-3.32z"/>
    <path fill="white" mask="url(#id37)" d="M99.81 135.54c21.07,0 38.14,-17.08 38.14,-38.14 0,-21.07 -17.07,-38.15 -38.14,-38.15 -21.07,0 -38.14,17.08 -38.14,38.15 0,21.06 17.07,38.14 38.14,38.14z"/>
    <line fill="none" stroke="black" stroke-width="33.17" stroke-linecap="square" stroke-miterlimit="22.9256" mask="url(#id39)" x1="-55.93" y1="168.71" x2="-36.03" y2= "168.71" />
    <path fill="#292927" mask="url(#id41)" d="M138.85 112.32l14.93 0 0 -29.85 -14.93 0 0 29.85zm-39.8 -29.85c-8.24,0 -14.92,6.68 -14.92,14.93 0,8.24 6.68,14.92 14.92,14.92l0 -29.85zm39.8 0l-39.8 0 0 29.85 39.8 0 0 -29.85z"/>
   </g>
  </g>
  <path fill="none" d="M24.43 162.52c35.72,40.55 97.54,44.47 138.09,8.75 40.55,-35.72 44.47,-97.55 8.75,-138.1 -35.72,-40.55 -97.55,-44.46 -138.1,-8.74 -40.55,35.72 -44.46,97.54 -8.74,138.09z"/>
  <path fill="#292927" d="M221.62 134.01c0,2.39 0.06,4.22 0.19,5.48 0.25,1.13 1.2,2.96 2.84,5.48 1.76,2.4 4.91,3.59 9.45,3.59 2.52,0 4.85,-0.5 6.99,-1.51 2.15,-1.13 3.72,-2.52 4.73,-4.16 1.01,-1.76 1.51,-3.53 1.51,-5.29 0.13,-1.89 0.19,-3.15 0.19,-3.78l0 -8.89c0,-2.52 -0.12,-4.41 -0.38,-5.67 -0.12,-1.26 -0.88,-2.58 -2.27,-3.97 -1.26,-1.51 -3.15,-2.84 -5.67,-3.97 -2.39,-1.26 -6.68,-3.03 -12.85,-5.29 -6.05,-2.27 -11.16,-5.8 -15.32,-10.59 -4.15,-4.92 -6.23,-11.6 -6.23,-20.04l0 -5.67c0,-8.57 2.83,-15.95 8.5,-22.12 5.8,-6.3 12.98,-9.45 21.55,-9.45 8.7,0 15.95,3.08 21.75,9.26 5.92,6.05 8.88,13.48 8.88,22.31l0 5.67 -17.96 0 0 -5.67c0,-1.77 -0.12,-3.28 -0.38,-4.54 -0.25,-1.26 -1.26,-3.09 -3.02,-5.48 -1.77,-2.4 -4.73,-3.59 -8.89,-3.59 -3.65,0 -6.68,1.32 -9.07,3.97 -2.27,2.52 -3.4,5.73 -3.4,9.64l0 5.67c0,2.39 0.06,4.16 0.18,5.29 0.26,1.01 0.95,2.21 2.08,3.59 1.14,1.39 2.78,2.59 4.92,3.6 2.14,1 6.24,2.64 12.29,4.91 6.17,2.14 11.59,5.74 16.26,10.78 4.66,4.91 6.99,11.66 6.99,20.23l0 10.21c0,4.16 -0.44,7.81 -1.32,10.96 -0.76,3.15 -3.28,7.56 -7.56,13.24 -4.29,5.54 -11.66,8.31 -22.12,8.31 -10.84,0 -18.72,-3.53 -23.63,-10.58 -4.92,-7.19 -7.38,-14.5 -7.38,-21.93l0 -4.54 18.15 0 0 4.54z"/>
  <path fill="#292927" d="M327.38 83.53c2.4,-3.03 5.04,-5.3 7.94,-6.81 2.9,-1.64 6.18,-2.46 9.83,-2.46 6.18,0 11.22,2.21 15.13,6.62 4.03,4.29 6.05,9.52 6.05,15.69l0 68.82 -18.15 0 0 -63.71c0,-2.9 -0.76,-5.23 -2.27,-7 -1.39,-1.89 -3.59,-2.83 -6.62,-2.83 -2.52,0 -4.66,1 -6.43,3.02 -1.63,1.89 -2.45,4.16 -2.45,6.81l0 63.71 -18.15 0 0 -63.71c0,-2.78 -0.82,-5.11 -2.46,-7 -1.64,-1.89 -3.84,-2.83 -6.62,-2.83 -2.52,0 -4.66,1 -6.42,3.02 -1.64,1.89 -2.46,4.16 -2.46,6.81l0 63.71 -18.15 0 0 -89.99 18.15 0 0 8.13c4.16,-6.18 9.83,-9.27 17.01,-9.27 3.41,0 6.43,0.82 9.08,2.46 2.77,1.51 5.1,3.78 6.99,6.81z"/>
  <path fill="#292927" d="M379.54 155.94c-0.89,-1.52 -1.45,-3.15 -1.71,-4.92 -0.25,-1.89 -0.37,-3.97 -0.37,-6.24l0 -10.21c0,-6.68 1.63,-11.66 4.91,-14.93 3.4,-3.28 6.43,-5.49 9.08,-6.62 2.77,-1.26 6.05,-1.89 9.83,-1.89l12.1 0 0 -7.75c0,-1.77 -0.13,-3.22 -0.38,-4.35 -0.13,-1.13 -0.88,-2.58 -2.27,-4.35 -1.39,-1.76 -3.28,-2.64 -5.67,-2.64 -2.52,0 -4.67,0.81 -6.43,2.45 -1.77,1.64 -2.84,3.78 -3.21,6.43l-17.96 0c0,-7.31 2.58,-13.55 7.75,-18.72 5.29,-5.29 11.65,-7.94 19.09,-7.94 7.31,0 13.68,2.59 19.1,7.76 5.42,5.16 8.12,11.47 8.12,18.9l0 64.47 -18.14 0 0 -9.08c-1.89,3.15 -4.29,5.68 -7.19,7.57 -2.77,1.76 -5.92,2.64 -9.45,2.64 -7.94,0 -13.68,-3.53 -17.2,-10.58zm16.06 -21.56l0 4.54c0,2.4 0.82,4.6 2.46,6.62 1.77,1.89 4.04,2.83 6.81,2.83 1.51,0 2.9,-0.37 4.16,-1.13 1.38,-0.76 2.39,-1.77 3.02,-3.02 0.76,-1.39 1.14,-3.09 1.14,-5.11 0.12,-2.14 0.19,-3.65 0.19,-4.54l0 -8.69 -6.81 0c-3.28,0 -5.92,0.63 -7.94,1.89 -2.02,1.26 -3.03,3.46 -3.03,6.61z"/>
  <path fill="#292927" d="M487.83 75.4l2.6 13.7c0,0.47 0,0.47 -8.29,0.47 -5.93,0 -10.81,4.48 -13.96,8.51 -3.15,4.04 -4.73,8.89 -4.73,14.56l0 52.75 -18.15 0 0 -89.99 18.15 0 0 9.64c3.15,-3.91 7,-6.68 11.53,-8.32 4.67,-1.64 9.57,-1.32 12.85,-1.32z"/>
  <path fill="#292927" d="M518.77 148.19l4.16 0 0 17.2 -5.67 0c-3.4,0 -6.43,-0.32 -9.08,-0.95 -2.64,-0.75 -5.23,-2.2 -7.75,-4.34 -2.52,-2.15 -4.28,-4.48 -5.29,-7 -1.01,-2.65 -1.51,-5.86 -1.51,-9.64l0 -53.88 -8.89 -0.08 0 -14.1 8.89 0 0 -27.23 18.15 0 0 27.23 11.15 0 0 14.18 -11.15 0 0 50.67c0,3.02 0.37,5.1 1.13,6.23 0.88,1.14 2.84,1.71 5.86,1.71z"/>
  <path fill="#292927" d="M587.21 133.63c0,4.03 -0.26,7.5 -0.76,10.4 -0.38,2.77 -1.64,5.86 -3.78,9.26 -2.02,3.4 -5.29,6.49 -9.83,9.26 -4.41,2.65 -8.95,3.97 -13.61,3.97 -5.55,0 -10.65,-1.19 -15.32,-3.59 -4.53,-2.39 -7.87,-5.42 -10.02,-9.07 -2.14,-3.66 -3.53,-7 -4.16,-10.02 -0.5,-3.15 -0.75,-6.56 -0.75,-10.21l0 -65.04c0,-3.53 0.31,-6.68 0.94,-9.45 0.76,-2.77 2.27,-5.8 4.54,-9.07 2.27,-3.28 5.42,-6.05 9.45,-8.32 4.16,-2.4 8.51,-3.59 13.05,-3.59 8.69,0 15.88,2.89 21.55,8.69 5.8,5.67 8.7,12.92 8.7,21.74l0 6.81 -17.77 0 0 -6.81c0,-3.53 -1.01,-6.43 -3.03,-8.69 -1.89,-2.4 -4.73,-3.6 -8.51,-3.6 -3.53,0 -6.3,1.2 -8.31,3.6 -1.9,2.26 -2.84,5.16 -2.84,8.69l0 65.04c0,1.64 0,3.27 0,4.91 0.13,1.64 1.01,3.72 2.65,6.24 1.63,2.52 4.53,3.78 8.69,3.78 4.41,0 7.25,-1.07 8.51,-3.21 1.39,-2.27 2.21,-3.91 2.46,-4.92 0.25,-1.13 0.38,-2.64 0.38,-4.53l0 -2.27 0 -4.16 17.77 0 0 4.16z"/>
 </g>
</svg>