<svg width="342" height="65" viewBox="0 0 342 65" fill="none" xmlns="http://www.w3.org/2000/svg">
<g clip-path="url(#clip0)">
<mask id="mask0" style="mask-type:alpha" maskUnits="userSpaceOnUse" x="-68" y="1" width="295" height="61">
<path d="M-67.2415 1.00879V61.8298H226.986L208.508 1.00879" fill="white"/>
</mask>
<g mask="url(#mask0)">
<path fill-rule="evenodd" clip-rule="evenodd" d="M52.1555 7.70371V12.1481C52.1555 13.0511 51.4235 13.783 50.5206 13.783H23.3457C22.4427 13.783 21.7108 14.5149 21.7108 15.4178V27.3354C21.7108 28.2382 22.4427 28.9702 23.3457 28.9702H42.8567C43.7596 28.9702 44.4915 29.7022 44.4915 30.6051V34.929C44.4915 35.8318 43.7596 36.5638 42.8567 36.5638H23.3457C22.4427 36.5638 21.7108 37.2957 21.7108 38.1986V49.9755C21.7108 50.8784 22.4427 51.6103 23.3457 51.6103H50.5206C51.4235 51.6103 52.1555 52.3422 52.1555 53.2452V57.6116C52.1555 58.5145 51.4235 59.2465 50.5206 59.2465H15.7521C14.8492 59.2465 14.1172 58.5145 14.1172 57.6116V53.3858C14.1172 52.4829 13.3853 51.751 12.4824 51.751H8.16977C7.26695 51.751 6.53491 51.019 6.53491 50.1161V15.3475C6.53491 14.4445 7.26695 13.7126 8.16977 13.7126H12.3417C13.2447 13.7126 13.9766 12.9807 13.9766 12.0777V7.70371C13.9766 6.80077 14.7085 6.06885 15.6115 6.06885H50.5206C51.4235 6.06885 52.1555 6.80077 52.1555 7.70371Z" fill="#25222C"/>
</g>
<mask id="mask1" style="mask-type:alpha" maskUnits="userSpaceOnUse" x="-68" y="1" width="295" height="61">
<path d="M-67.2415 1.00879V61.8298H226.986L208.508 1.00879" fill="white"/>
</mask>
<g mask="url(#mask1)">
<path fill-rule="evenodd" clip-rule="evenodd" d="M76.3953 51.681H96.1524C97.0553 51.681 97.7873 50.949 97.7873 50.0461V15.3479C97.7873 14.4449 97.0553 13.713 96.1524 13.713H76.3953C75.4924 13.713 74.7604 14.4449 74.7604 15.3479V50.0461C74.7604 50.949 75.4924 51.681 76.3953 51.681ZM105.311 7.70469V12.0781C105.311 12.9811 106.042 13.713 106.945 13.713H111.269C112.172 13.713 112.904 14.4449 112.904 15.3479V50.0461C112.904 50.949 112.172 51.681 111.269 51.681H106.875C105.972 51.681 105.24 52.4129 105.24 53.3158V57.612C105.24 58.5148 104.508 59.2468 103.605 59.2468H61.3839C60.4809 59.2468 59.749 58.5148 59.749 57.612V7.71925C59.749 6.81654 60.4806 6.08462 61.3833 6.08439L103.675 6.06982C104.578 6.06982 105.311 6.80152 105.311 7.70469Z" fill="#25222C"/>
</g>
<mask id="mask2" style="mask-type:alpha" maskUnits="userSpaceOnUse" x="-68" y="1" width="295" height="61">
<path d="M-67.2415 1.00879V61.8298H226.986L208.508 1.00879" fill="white"/>
</mask>
<g mask="url(#mask2)">
<path fill-rule="evenodd" clip-rule="evenodd" d="M122.062 13.6428H126.387C127.289 13.6428 128.021 12.9109 128.021 12.0079V7.7042C128.021 6.80126 128.753 6.06934 129.656 6.06934H164.671C165.574 6.06934 166.306 6.80126 166.306 7.7042V12.0079C166.306 12.9109 167.038 13.6428 167.941 13.6428H171.947C172.851 13.6428 173.583 14.3747 173.583 15.2777V19.6278C173.583 20.5308 172.851 21.2627 171.947 21.2627H160.041C159.139 21.2627 158.407 20.5326 158.406 19.6308L158.398 15.3275C158.397 14.4257 157.665 13.6956 156.763 13.6956H137.25C136.346 13.6956 135.615 14.4275 135.615 15.3304V49.9935C135.615 50.8964 136.346 51.6284 137.25 51.6284H156.764C157.665 51.6284 158.397 50.8987 158.399 49.9973L158.427 38.0974C158.429 37.193 157.697 36.4587 156.792 36.4587H152.437C151.534 36.4587 150.802 35.7268 150.802 34.8238V30.4836C150.802 29.5808 151.534 28.8489 152.437 28.8489H171.947C172.851 28.8489 173.583 29.5808 173.583 30.4836V49.9935C173.583 50.8964 172.851 51.6284 171.947 51.6284H167.624C166.722 51.6284 165.989 52.3603 165.989 53.2632V57.6251C165.989 58.528 165.257 59.2599 164.355 59.2599H129.656C128.753 59.2599 128.021 58.528 128.021 57.6251V53.2587C128.021 52.3558 127.289 51.6239 126.387 51.6239H122.062C121.16 51.6239 120.427 50.892 120.427 49.989V15.2777C120.427 14.3747 121.16 13.6428 122.062 13.6428Z" fill="#25222C"/>
</g>
<mask id="mask3" style="mask-type:alpha" maskUnits="userSpaceOnUse" x="-68" y="1" width="295" height="61">
<path d="M-67.2415 1.00879V61.8298H226.986L208.508 1.00879" fill="white"/>
</mask>
<g mask="url(#mask3)">
<path fill-rule="evenodd" clip-rule="evenodd" d="M226.808 7.70947V12.1434C226.808 13.0491 226.073 13.7835 225.168 13.7835H198.003C197.098 13.7835 196.364 14.5178 196.364 15.4236V27.3306C196.364 28.2364 197.098 28.9707 198.003 28.9707H217.504C218.41 28.9707 219.144 29.705 219.144 30.6108V34.9242C219.144 35.83 218.41 36.5643 217.504 36.5643H198.003C197.098 36.5643 196.364 37.2985 196.364 38.2043V49.9708C196.364 50.8766 197.098 51.6108 198.003 51.6108H225.168C226.073 51.6108 226.808 52.3451 226.808 53.2509V57.6068C226.808 58.5126 226.073 59.247 225.168 59.247H190.409C189.504 59.247 188.77 58.5126 188.77 57.6068V53.3916C188.77 52.4857 188.036 51.7514 187.129 51.7514H182.828C181.921 51.7514 181.187 51.0171 181.187 50.1113V15.3532C181.187 14.4475 181.921 13.7131 182.828 13.7131H186.989C187.895 13.7131 188.629 12.9789 188.629 12.0732V7.70947C188.629 6.80372 189.364 6.06934 190.269 6.06934H225.168C226.073 6.06934 226.808 6.80372 226.808 7.70947Z" fill="#25222C"/>
</g>
<mask id="mask4" style="mask-type:alpha" maskUnits="userSpaceOnUse" x="215" y="1" width="181" height="87">
<path d="M215.232 1.00879L226.034 36.5641H244.492H249.241C253.397 36.5641 256.764 39.9325 256.764 44.0873C256.764 48.2423 253.397 51.6106 249.241 51.6106H244.492H230.605L241.54 87.605H395.506V1.00879" fill="white"/>
</mask>
<g mask="url(#mask4)">
<path fill-rule="evenodd" clip-rule="evenodd" d="M326.691 10.5743L314.743 22.1425H198.764L202.835 6H329.345C332.608 6 333.503 6.37588 333.811 6.93622C334.247 7.72945 335.24 11.6147 329.59 18.8437C325.589 23.9628 323.277 26.3192 322.27 27.2587L322.107 24.699C323.609 23.0914 326.376 20.0944 327.487 18.6132C328.961 16.6481 331.429 14.0806 332.27 9.1776C332.601 7.23769 329.384 8.0289 326.691 10.5743Z" fill="#00B26B"/>
</g>
<mask id="mask5" style="mask-type:alpha" maskUnits="userSpaceOnUse" x="215" y="1" width="181" height="87">
<path d="M215.232 1.00879L226.034 36.5641H244.492H249.241C253.397 36.5641 256.764 39.9325 256.764 44.0873C256.764 48.2423 253.397 51.6106 249.241 51.6106H244.492H230.605L241.54 87.605H395.506V1.00879H215.232Z" fill="white"/>
</mask>
<g mask="url(#mask5)">
<path fill-rule="evenodd" clip-rule="evenodd" d="M268.073 36.5641C264.038 36.5641 260.766 39.8355 260.766 43.871C260.766 47.9066 264.038 51.178 268.073 51.178C272.109 51.178 275.38 47.9066 275.38 43.871C275.38 39.8355 272.109 36.5641 268.073 36.5641ZM266.038 59.341H201.712L197.641 56.253L194.903 53.2349C193.43 52.8138 186.165 36.601 186.165 36.601C186.165 36.601 186.06 32.5654 187.535 23.4063C189.009 14.247 199.957 8.91309 199.957 8.91309L198.563 26.83H307.194C307.194 26.83 306.235 35.9189 306.881 45.2998C307.399 52.8257 309.977 59.341 311.905 59.341H266.038Z" fill="#00B26B"/>
</g>
<mask id="mask6" style="mask-type:alpha" maskUnits="userSpaceOnUse" x="215" y="1" width="181" height="87">
<path d="M215.232 1.00879L226.034 36.5641H244.492H249.241C253.397 36.5641 256.764 39.9325 256.764 44.0873C256.764 48.2423 253.397 51.6106 249.241 51.6106H244.492H230.605L241.54 87.605H395.506V1.00879" fill="white"/>
</mask>
<g mask="url(#mask6)">
<path fill-rule="evenodd" clip-rule="evenodd" d="M311.379 48.3372V48.8989C311.864 56.2269 314.216 58.8072 315.488 58.8072C316.832 58.8072 318.556 50.7583 319.449 41.5048C320.345 32.2404 318.794 22.9263 318.794 22.9263L316.506 25.2914C316.506 25.2914 316.945 27.6128 316.945 31.1073C316.945 34.9499 314.959 48.3372 311.379 48.3372Z" fill="#00B26B"/>
</g>
<mask id="mask7" style="mask-type:alpha" maskUnits="userSpaceOnUse" x="216" y="4" width="63" height="84">
<path d="M216.19 4.16357L226.034 36.5642H244.492H249.241C253.397 36.5642 256.765 39.9325 256.765 44.0873C256.765 48.2423 253.397 51.6106 249.241 51.6106H244.492H230.605L241.54 87.605H254.627L278.84 4.16357" fill="white"/>
</mask>
<g mask="url(#mask7)">
<path fill-rule="evenodd" clip-rule="evenodd" d="M326.691 10.5743L314.743 22.1425H198.764L202.835 6H329.345C332.608 6 333.503 6.37588 333.811 6.93622C334.247 7.72945 335.24 11.6147 329.59 18.8437C325.589 23.9628 323.277 26.3192 322.27 27.2587C321.901 27.6017 321.417 27.7924 320.914 27.7924C320.914 27.7924 320.906 27.3876 320.859 26.8985C320.807 26.3448 320.745 26.0076 320.745 26.0076C321.038 25.9092 321.196 25.675 321.477 25.374C322.868 23.8882 326.321 20.1681 327.487 18.6132C328.961 16.6481 331.429 14.0806 332.27 9.1776C332.601 7.23769 329.384 8.0289 326.691 10.5743Z" fill="#00B26B"/>
</g>
<mask id="mask8" style="mask-type:alpha" maskUnits="userSpaceOnUse" x="216" y="4" width="63" height="84">
<path d="M216.19 4.16357L226.034 36.5642H244.492H249.241C253.397 36.5642 256.765 39.9325 256.765 44.0873C256.765 48.2423 253.397 51.6106 249.241 51.6106H244.492H230.605L241.54 87.605H254.627L278.84 4.16357H216.19Z" fill="white"/>
</mask>
<g mask="url(#mask8)">
<path fill-rule="evenodd" clip-rule="evenodd" d="M268.073 36.5641C264.038 36.5641 260.766 39.8355 260.766 43.871C260.766 47.9066 264.038 51.178 268.073 51.178C272.109 51.178 275.38 47.9066 275.38 43.871C275.38 39.8355 272.109 36.5641 268.073 36.5641ZM283.663 55.1299H308.113L311.876 59.341H201.712L197.641 56.253L194.903 53.2349C193.43 52.8138 186.165 36.601 186.165 36.601C186.165 36.601 186.06 32.5654 187.535 23.4063C189.009 14.247 199.957 8.91309 199.957 8.91309L194.957 26.9043H309.319C309.319 26.9043 309.075 29.9733 309.72 39.3542C310.238 46.88 312.816 53.2349 314.743 53.2349H303.837H302.49L283.663 55.1299Z" fill="#00B26B"/>
</g>
<path d="M205.172 39.9038C205.086 39.9038 205.009 39.9365 204.944 40.002C204.879 40.0674 204.845 40.1473 204.845 40.2419V44.1459C204.845 44.2331 204.879 44.3095 204.944 44.3749C205.009 44.4403 205.086 44.4731 205.172 44.4731H205.849V46.1634C205.849 46.2579 205.882 46.3379 205.947 46.4032C206.013 46.4614 206.089 46.4905 206.177 46.4905H206.864V48.1809C206.864 48.2681 206.893 48.3444 206.951 48.4098C207.016 48.4753 207.096 48.508 207.191 48.508H208.139C208.226 48.508 208.303 48.4753 208.369 48.4098C208.434 48.3444 208.466 48.2681 208.466 48.1809V46.556H209.142C209.229 46.556 209.306 46.5233 209.372 46.4578C209.437 46.3924 209.469 46.316 209.469 46.2287V44.5385H210.091C210.179 44.5385 210.255 44.5094 210.32 44.4512C210.386 44.3859 210.418 44.3059 210.418 44.2114V40.2419C210.418 40.1473 210.386 40.0674 210.32 40.002C210.255 39.9365 210.179 39.9038 210.091 39.9038H209.142C209.048 39.9038 208.968 39.9365 208.902 40.002C208.844 40.0674 208.815 40.1473 208.815 40.2419V43.8842H208.139C208.045 43.8842 207.964 43.9169 207.899 43.9823C207.834 44.0478 207.802 44.1241 207.802 44.2114V45.9016H207.397V44.2767C207.397 44.1823 207.365 44.1023 207.3 44.0369C207.235 43.9715 207.157 43.9387 207.071 43.9387H206.394V40.2419C206.394 40.1473 206.362 40.0674 206.297 40.002C206.23 39.9365 206.154 39.9038 206.067 39.9038H205.172Z" fill="#25222C"/>
<path d="M211.584 46.905C211.496 46.905 211.42 46.9376 211.355 47.003C211.289 47.0685 211.257 47.1448 211.257 47.2321V48.1809C211.257 48.2681 211.289 48.3444 211.355 48.4098C211.42 48.4753 211.496 48.508 211.584 48.508H216.503C216.589 48.508 216.666 48.4753 216.731 48.4098C216.796 48.3444 216.83 48.2681 216.83 48.1809V47.2321C216.83 47.1448 216.796 47.0685 216.731 47.003C216.666 46.9376 216.589 46.905 216.503 46.905H214.943V41.5068H216.503C216.589 41.5068 216.666 41.4778 216.731 41.4196C216.796 41.3542 216.83 41.2743 216.83 41.1797V40.2419C216.83 40.1473 216.796 40.0674 216.731 40.002C216.666 39.9365 216.589 39.9038 216.503 39.9038H211.584C211.496 39.9038 211.42 39.9365 211.355 40.002C211.289 40.0674 211.257 40.1473 211.257 40.2419V41.1797C211.257 41.2743 211.289 41.3542 211.355 41.4196C211.42 41.4778 211.496 41.5068 211.584 41.5068H213.154V46.905H211.584Z" fill="#25222C"/>
<path d="M217.922 40.8526C217.827 40.8526 217.748 40.8853 217.682 40.9508C217.617 41.0162 217.584 41.0925 217.584 41.1797V43.1317C217.584 43.2263 217.617 43.3062 217.682 43.3717C217.748 43.4371 217.827 43.4698 217.922 43.4698H218.598V44.1459C218.598 44.2331 218.628 44.3095 218.685 44.3749C218.751 44.4403 218.83 44.4731 218.925 44.4731H222.568V46.905H219.132V46.2833C219.132 46.1961 219.099 46.1197 219.034 46.0544C218.968 45.9889 218.892 45.9562 218.805 45.9562H217.922C217.827 45.9562 217.748 45.9889 217.682 46.0544C217.617 46.1197 217.584 46.1961 217.584 46.2833V47.1775C217.584 47.2648 217.617 47.3411 217.682 47.4066C217.748 47.472 217.827 47.5046 217.922 47.5046H218.598V48.1809C218.598 48.2681 218.628 48.3444 218.685 48.4098C218.751 48.4753 218.83 48.508 218.925 48.508H222.905C222.993 48.508 223.069 48.4753 223.135 48.4098C223.2 48.3444 223.232 48.2681 223.232 48.1809V47.5592H223.832C223.927 47.5592 224.007 47.5265 224.072 47.461C224.138 47.3956 224.17 47.3193 224.17 47.2321V44.2767C224.17 44.1823 224.138 44.1023 224.072 44.0369C224.007 43.9715 223.927 43.9387 223.832 43.9387H223.156V43.2626C223.156 43.1753 223.124 43.099 223.058 43.0335C223 42.9682 222.923 42.9355 222.829 42.9355H219.198V41.5068H222.633V42.1285C222.633 42.223 222.665 42.303 222.731 42.3684C222.796 42.4266 222.873 42.4556 222.96 42.4556H223.832C223.927 42.4556 224.007 42.4266 224.072 42.3684C224.138 42.303 224.17 42.223 224.17 42.1285V41.2452C224.17 41.1507 224.138 41.0744 224.072 41.0162C224.007 40.9508 223.927 40.918 223.832 40.918H223.156V40.2419C223.156 40.1473 223.124 40.0674 223.058 40.002C223 39.9365 222.923 39.9038 222.829 39.9038H218.86C218.772 39.9038 218.696 39.9365 218.631 40.002C218.565 40.0674 218.532 40.1473 218.532 40.2419V40.8526H217.922Z" fill="#25222C"/>
<path d="M225.354 46.905C225.266 46.905 225.19 46.9376 225.125 47.003C225.059 47.0685 225.027 47.1448 225.027 47.2321V48.1809C225.027 48.2681 225.059 48.3444 225.125 48.4098C225.19 48.4753 225.266 48.508 225.354 48.508H230.273C230.359 48.508 230.435 48.4753 230.501 48.4098C230.566 48.3444 230.599 48.2681 230.599 48.1809V47.2321C230.599 47.1448 230.566 47.0685 230.501 47.003C230.435 46.9376 230.359 46.905 230.273 46.905H228.713V41.5068H230.273C230.359 41.5068 230.435 41.4778 230.501 41.4196C230.566 41.3542 230.599 41.2743 230.599 41.1797V40.2419C230.599 40.1473 230.566 40.0674 230.501 40.002C230.435 39.9365 230.359 39.9038 230.273 39.9038H225.354C225.266 39.9038 225.19 39.9365 225.125 40.002C225.059 40.0674 225.027 40.1473 225.027 40.2419V41.1797C225.027 41.2743 225.059 41.3542 225.125 41.4196C225.19 41.4778 225.266 41.5068 225.354 41.5068H226.924V46.905H225.354Z" fill="#25222C"/>
<path d="M231.916 39.9038C231.82 39.9038 231.741 39.9365 231.676 40.002C231.61 40.0674 231.577 40.1473 231.577 40.2419V48.1809C231.577 48.2681 231.61 48.3444 231.676 48.4098C231.741 48.4753 231.82 48.508 231.916 48.508H237.826C237.92 48.508 238.001 48.4753 238.066 48.4098C238.131 48.3444 238.163 48.2681 238.163 48.1809V40.2419C238.163 40.1473 238.131 40.0674 238.066 40.002C238.001 39.9365 237.92 39.9038 237.826 39.9038H231.916ZM233.246 41.5723H236.496V46.8395H233.246V41.5723Z" fill="#25222C"/>
<path d="M244.345 45.5526V48.1809C244.345 48.2681 244.379 48.3444 244.444 48.4098C244.509 48.4753 244.589 48.508 244.684 48.508H245.61C245.706 48.508 245.785 48.4753 245.85 48.4098C245.916 48.3444 245.949 48.2681 245.949 48.1809V40.2419C245.949 40.1473 245.916 40.0674 245.85 40.002C245.785 39.9365 245.706 39.9038 245.61 39.9038H244.684C244.589 39.9038 244.509 39.9365 244.444 40.002C244.379 40.0674 244.345 40.1473 244.345 40.2419V43.8842H243.932V43.2626C243.932 43.1753 243.899 43.099 243.833 43.0335C243.768 42.9682 243.692 42.9355 243.604 42.9355H242.929V42.2594C242.929 42.1721 242.895 42.0958 242.83 42.0303C242.765 41.9649 242.688 41.9321 242.601 41.9321H241.914V41.1797C241.914 41.0925 241.881 41.0162 241.816 40.9508C241.757 40.8853 241.681 40.8526 241.587 40.8526H240.976V40.2419C240.976 40.1473 240.944 40.0674 240.878 40.002C240.813 39.9365 240.732 39.9038 240.638 39.9038H239.7C239.606 39.9038 239.526 39.9365 239.46 40.002C239.395 40.0674 239.363 40.1473 239.363 40.2419V48.1809C239.363 48.2681 239.395 48.3444 239.46 48.4098C239.526 48.4753 239.606 48.508 239.7 48.508H240.638C240.732 48.508 240.813 48.4753 240.878 48.4098C240.944 48.3444 240.976 48.2681 240.976 48.1809V42.5211H241.38V43.1317C241.38 43.2263 241.412 43.3062 241.477 43.3717C241.543 43.4371 241.62 43.4698 241.707 43.4698H242.383V44.1459C242.383 44.2331 242.415 44.3095 242.481 44.3749C242.546 44.4403 242.623 44.4731 242.71 44.4731H243.408V45.2146C243.408 45.3091 243.437 45.3891 243.495 45.4546C243.561 45.52 243.64 45.5526 243.735 45.5526H244.345Z" fill="#25222C"/>
</g>
<defs>
<clipPath id="clip0">
<rect width="341.81" height="65" fill="white"/>
</clipPath>
</defs>
</svg>
