<svg width="33" height="35" viewBox="0 0 33 35" fill="none" xmlns="http://www.w3.org/2000/svg">
<g clip-path="url(#clip0_72_17)">
<path d="M16.5 12.5786C13.8124 12.5786 11.626 14.8313 11.626 17.6004C11.626 20.3694 13.8124 22.6221 16.5 22.6221C19.1876 22.6221 21.3741 20.3694 21.3741 17.6004C21.3741 14.8313 19.1876 12.5786 16.5 12.5786Z" fill="#009A96"/>
<path d="M23.258 0.760742H9.74204C4.50154 0.760742 0.253174 5.13785 0.253174 10.5372V24.463C0.253174 29.862 4.50154 34.2391 9.74204 34.2391H23.2583C28.4985 34.2391 32.7468 29.862 32.7468 24.4626V10.5372C32.7468 5.13785 28.4985 0.760742 23.258 0.760742ZM16.5 26.308C11.8397 26.308 8.0484 22.4019 8.0484 17.6007C8.0484 12.7992 11.8397 8.893 16.5 8.893C21.16 8.893 24.9512 12.7992 24.9512 17.6007C24.9512 22.4019 21.16 26.308 16.5 26.308ZM25.1368 8.91532C24.14 8.91532 23.3316 8.08245 23.3316 7.05541C23.3316 6.02837 24.14 5.1955 25.1368 5.1955C26.1336 5.1955 26.942 6.02837 26.942 7.05541C26.942 8.08245 26.1336 8.91532 25.1368 8.91532Z" fill="#009A96"/>
</g>
<defs>
<clipPath id="clip0_72_17">
<rect width="33" height="34" fill="white" transform="translate(0 0.5)"/>
</clipPath>
</defs>
</svg>
