<svg width="290" height="70" viewBox="0 0 290 70" fill="none" xmlns="http://www.w3.org/2000/svg">
<g clip-path="url(#clip0)">
<path d="M145.223 60.8504C148.437 63.7175 152.182 66.0035 156.294 67.5301C156.794 65.9487 157.34 64.386 157.891 62.8226C157.903 62.7905 157.914 62.7614 157.926 62.7316C154.654 61.4955 151.655 59.6983 149.042 57.4604C147.822 58.6535 146.547 59.7823 145.223 60.8504Z" fill="#C92727"/>
<path d="M174.925 0.619141C174.589 2.27547 174.216 3.92498 173.819 5.5654C178.628 6.45606 183.036 8.50315 186.744 11.4114C188.062 10.3117 189.344 9.16209 190.654 8.05329C186.208 4.35439 180.828 1.74153 174.925 0.619141Z" fill="#C92727"/>
<path d="M140.497 24.4489C138.748 23.9377 137.13 23.6218 135.539 23.2651C134.258 26.8914 133.551 30.7902 133.551 34.8526C133.551 43.1456 136.469 50.7684 141.324 56.7575C142.644 55.7101 143.917 54.6013 145.132 53.413C141.061 48.3191 138.618 41.8665 138.618 34.8526C138.618 31.1946 139.284 27.6888 140.497 24.4489Z" fill="#C92727"/>
<path d="M168.404 0C155.276 0 143.822 7.30009 137.881 18.0514C138.492 18.1719 139.099 18.2787 139.667 18.4264C140.787 18.7217 141.264 18.8762 142.916 19.4556C148.099 10.9081 157.462 5.16438 168.145 5.07122C168.563 3.39445 168.958 1.71313 169.315 0.0204481C169.013 0.013632 168.711 0 168.404 0Z" fill="#333333"/>
<path d="M197.924 38.7648C199.558 39.2646 201.175 39.8667 202.816 40.3416C203.102 38.5534 203.254 36.7199 203.254 34.8523C203.254 26.1117 200.012 18.1186 194.678 11.9932C193.385 13.0769 192.114 14.1925 190.826 15.2786C195.407 20.5179 198.187 27.3636 198.187 34.8523C198.187 36.1791 198.092 37.4833 197.924 38.7648Z" fill="#C92727"/>
<path d="M196.664 44.2383C192.725 56.0757 181.548 64.6391 168.404 64.6391C166.68 64.6391 164.994 64.4822 163.351 64.2004C163.34 64.2413 163.331 64.278 163.317 64.3189C162.763 65.8886 162.215 67.463 161.713 69.0514C163.879 69.4738 166.114 69.7036 168.404 69.7036C183.829 69.7036 196.937 59.6248 201.512 45.7128C199.893 45.2494 198.293 44.7132 196.664 44.2383Z" fill="#C92727"/>
<path fill-rule="evenodd" clip-rule="evenodd" d="M168.401 62.7077C160.717 62.7077 153.76 59.5951 148.723 54.5578C143.688 49.5207 140.573 42.5659 140.573 34.8819C140.573 27.1977 143.688 20.2407 148.723 15.2059C153.76 10.1687 160.717 7.05371 168.401 7.05371C176.085 7.05371 183.043 10.1687 188.077 15.2059C193.112 20.2407 196.227 27.1977 196.227 34.8819C196.227 42.5659 193.112 49.5207 188.077 54.5578C183.043 59.5951 176.085 62.7077 168.401 62.7077ZM149.854 53.4286C154.601 58.1727 161.158 61.1106 168.401 61.1106C175.642 61.1106 182.2 58.1727 186.946 53.4286C191.692 48.6823 194.628 42.1229 194.628 34.8819C194.628 27.6363 191.692 21.0836 186.946 16.3351C182.2 11.5887 175.642 8.65327 168.401 8.65327C161.158 8.65327 154.601 11.5887 149.854 16.3351C145.111 21.0836 142.173 27.6363 142.173 34.8819C142.173 42.1229 145.111 48.6823 149.854 53.4286Z" fill="#333333"/>
<path fill-rule="evenodd" clip-rule="evenodd" d="M147.338 42.2083C147.4 42.9444 147.765 44.6735 149.776 45.0461C152.353 45.521 157.71 45.8231 160.798 45.3801C163.881 44.9416 174.303 45.2937 174.303 45.2937V46.8637C175.191 46.7933 175.2 45.7232 175.377 45.2483C175.479 44.9779 182.364 45.8527 183.846 45.7345C185.17 45.6255 186.483 45.3301 187.417 44.1986C190.548 40.402 190.548 29.3598 187.417 25.5632C186.483 24.434 185.17 24.1386 183.846 24.0319C182.364 23.9092 175.479 24.7885 175.377 24.5135C175.2 24.041 175.191 22.9731 174.303 22.9004V24.4704C174.303 24.4704 163.881 24.8248 160.798 24.3818C157.71 23.9433 152.353 24.2409 149.776 24.7158C147.765 25.0884 147.4 26.8174 147.338 27.5536C146.936 32.2772 146.936 37.4961 147.338 42.2083ZM171.258 28.2147C173.714 27.4559 176.17 26.697 178.627 25.9381C180.919 30.9639 179.967 41.279 178.627 43.7647C176.129 43.0353 173.633 42.3083 171.135 41.579C172.235 37.4052 172.276 32.7406 171.258 28.2147ZM166.71 44.2054L174.257 44.3281V43.9737C174.257 43.9737 170.94 43.0217 169.159 42.9535C167.38 42.8831 165.898 42.8127 165.898 42.8127L166.71 44.2054ZM158.944 44.135H164.956L164.426 42.6196C163.108 42.6196 161.025 42.4537 159.843 42.6286C158.959 42.7559 158.367 43.1353 158.944 44.135ZM166.71 25.5337L174.257 25.411V25.7632C174.257 25.7632 170.94 26.7174 169.159 26.7856C167.38 26.856 165.898 26.9265 165.898 26.9265L166.71 25.5337ZM158.944 25.6041H164.956L164.426 27.1196C163.108 27.1196 161.025 27.2832 159.843 27.1105C158.959 26.9833 158.367 26.6039 158.944 25.6041ZM152.798 27.1401C154.331 27.7058 155.867 28.2715 157.401 28.8395C156.724 32.8452 156.854 36.9553 157.481 40.8542C155.91 41.4313 154.341 42.0084 152.775 42.5854C150.843 36.9076 151.977 30.3141 152.798 27.1401Z" fill="#C92727"/>
<path fill-rule="evenodd" clip-rule="evenodd" d="M5.59607 29.4354H0V26.1341H15.2432V29.4354H9.64489V43.6266H5.59607V29.4354ZM31.4907 43.6266L28.1167 38.7553H24.3951V43.6266H20.3485V26.1341H27.9167C29.4663 26.1341 30.8136 26.3954 31.9519 26.9111C33.0947 27.4269 33.974 28.1608 34.5897 29.1082C35.2055 30.0579 35.5145 31.1826 35.5145 32.4844C35.5145 33.7818 35.2009 34.902 34.5784 35.8449C33.9513 36.7855 33.0652 37.5057 31.9156 38.0033L35.8394 43.6266H31.4907ZM31.418 32.4844C31.418 31.4984 31.0999 30.7463 30.466 30.2215C29.8344 29.6966 28.9073 29.4354 27.694 29.4354H24.3951V35.5336H27.694C28.9073 35.5336 29.8344 35.2655 30.466 34.7338C31.0999 34.1999 31.418 33.4501 31.418 32.4844ZM53.1615 39.88H45.0412L43.4916 43.6266H39.3451L47.1406 26.1341H51.1371L58.9598 43.6266H54.7111L53.1615 39.88ZM51.8869 36.8059L49.1127 30.1079L46.3408 36.8059H51.8869ZM67.7618 29.3831V34.009H75.8573V37.2535H67.7618V43.6266H63.7128V26.1341H76.9318V29.3831H67.7618ZM86.6583 29.3831V34.009H94.7538V37.2535H86.6583V43.6266H82.6093V26.1341H95.8283V29.3831H86.6583ZM101.506 26.1341H105.555V43.6244H101.506V26.1341ZM121.005 43.9265C119.224 43.9265 117.611 43.5403 116.17 42.7655C114.727 41.9907 113.596 40.9161 112.771 39.5414C111.946 38.1669 111.533 36.6128 111.533 34.8815C111.533 33.1502 111.946 31.5961 112.771 30.2215C113.596 28.8469 114.727 27.7745 116.17 26.9974C117.611 26.2227 119.228 25.8364 121.028 25.8364C122.546 25.8364 123.916 26.1022 125.14 26.6362C126.365 27.1679 127.392 27.9336 128.225 28.9332L125.627 31.3325C124.445 29.967 122.98 29.2854 121.228 29.2854C120.146 29.2854 119.179 29.5217 118.331 29.9966C117.481 30.4714 116.82 31.1348 116.343 31.9824C115.868 32.8321 115.632 33.8 115.632 34.8815C115.632 35.9653 115.868 36.9286 116.343 37.7806C116.82 38.6304 117.481 39.2915 118.331 39.7664C119.179 40.239 120.146 40.4798 121.228 40.4798C122.98 40.4798 124.445 39.7868 125.627 38.4055L128.225 40.8024C127.392 41.8203 126.361 42.5951 125.127 43.1291C123.895 43.6607 122.52 43.9265 121.005 43.9265Z" fill="#C92727"/>
<path fill-rule="evenodd" clip-rule="evenodd" d="M210.586 26.1353H218.531C220.431 26.1353 222.109 26.4987 223.566 27.2235C225.024 27.9483 226.158 28.9685 226.963 30.284C227.771 31.5995 228.176 33.1332 228.176 34.8826C228.176 36.6321 227.771 38.1635 226.963 39.479C226.158 40.7945 225.024 41.817 223.566 42.5417C222.109 43.2665 220.431 43.6255 218.531 43.6255H210.586V26.1353ZM218.331 40.3015C220.081 40.3015 221.475 39.8152 222.518 38.8451C223.559 37.8681 224.077 36.5481 224.077 34.8826C224.077 33.2149 223.559 31.8949 222.518 30.9202C221.475 29.9477 220.081 29.4593 218.331 29.4593H214.635V40.3015H218.331ZM245.425 39.8812H237.303L235.755 43.6255H231.607L239.404 26.1353H243.399L251.221 43.6255H246.975L245.425 39.8812ZM244.148 36.8048L241.376 30.109L238.604 36.8048H244.148ZM258.724 29.4365H253.128V26.1353H268.371V29.4365H262.775V43.6255H258.724V29.4365ZM284.116 39.8812H275.996L274.446 43.6255H270.3L278.095 26.1353H282.094L289.917 43.6255H285.668L284.116 39.8812ZM282.844 36.8048L280.069 30.109L277.295 36.8048H282.844Z" fill="#333333"/>
</g>
<defs>
<clipPath id="clip0">
<rect width="289.917" height="70" fill="white"/>
</clipPath>
</defs>
</svg>