<svg width="60" height="60" viewBox="0 0 60 60" fill="none" xmlns="http://www.w3.org/2000/svg">
<path fill-rule="evenodd" clip-rule="evenodd" d="M57 0H33C31.35 0 30 1.35 30 3C30 4.65 31.35 6 33 6H54V54H33C31.35 54 30 55.35 30 57C30 58.65 31.35 60 33 60H57C58.65 60 60 58.65 60 57V3C60 1.35 58.65 0 57 0ZM45 30C45 29.16 44.67 28.4101 44.13 27.8701L29.13 12.8701C28.59 12.3301 27.84 12 27 12C25.35 12 24 13.35 24 15C24 15.84 24.33 16.5899 24.87 17.1299L34.77 27H3C1.35 27 0 28.35 0 30C0 31.65 1.35 33 3 33H34.77L24.9 42.8701C24.33 43.4101 24 44.16 24 45C24 46.65 25.35 48 27 48C27.84 48 28.59 47.6699 29.13 47.1299L44.13 32.1299C44.67 31.5899 45 30.84 45 30Z" fill="#009A96"/>
</svg>
